<svg width="81" height="83" viewBox="0 0 81 83" fill="none" xmlns="http://www.w3.org/2000/svg">
<path fill-rule="evenodd" clip-rule="evenodd" d="M41 2C63.0916 2 81 19.9086 81 41.9998C81 64.0911 63.0916 81.9997 41 81.9997C18.9089 81.9997 1 64.0911 1 41.9998C1 19.9086 18.9089 2 41 2Z" fill="#BBA664"/>
<path fill-rule="evenodd" clip-rule="evenodd" d="M41 2C63.0916 2 81 19.9086 81 41.9998C81 64.0911 63.0916 81.9997 41 81.9997C18.9089 81.9997 1 64.0911 1 41.9998C1 19.9086 18.9089 2 41 2Z" fill="url(#paint0_linear_41_5581)" style="mix-blend-mode:overlay"/>
<path d="M54.4277 27.1426H50.4277V25.1426C50.4277 24.6121 50.217 24.1034 49.8419 23.7284C49.4669 23.3533 48.9582 23.1426 48.4277 23.1426C47.8973 23.1426 47.3886 23.3533 47.0135 23.7284C46.6384 24.1034 46.4277 24.6121 46.4277 25.1426V27.1426H34.4277V25.1426C34.4277 24.6121 34.217 24.1034 33.8419 23.7284C33.4669 23.3533 32.9582 23.1426 32.4277 23.1426C31.8973 23.1426 31.3886 23.3533 31.0135 23.7284C30.6384 24.1034 30.4277 24.6121 30.4277 25.1426V27.1426H26.4277C24.8364 27.1426 23.3103 27.7747 22.1851 28.8999C21.0599 30.0252 20.4277 31.5513 20.4277 33.1426V57.1426C20.4277 58.7339 21.0599 60.26 22.1851 61.3852C23.3103 62.5104 24.8364 63.1426 26.4277 63.1426H54.4277C56.019 63.1426 57.5452 62.5104 58.6704 61.3852C59.7956 60.26 60.4277 58.7339 60.4277 57.1426V33.1426C60.4277 31.5513 59.7956 30.0252 58.6704 28.8999C57.5452 27.7747 56.019 27.1426 54.4277 27.1426ZM56.4277 57.1426C56.4277 57.673 56.217 58.1817 55.8419 58.5568C55.4669 58.9319 54.9582 59.1426 54.4277 59.1426H26.4277C25.8973 59.1426 25.3886 58.9319 25.0135 58.5568C24.6384 58.1817 24.4277 57.673 24.4277 57.1426V43.1426H56.4277V57.1426ZM56.4277 39.1426H24.4277V33.1426C24.4277 32.6121 24.6384 32.1034 25.0135 31.7284C25.3886 31.3533 25.8973 31.1426 26.4277 31.1426H30.4277V33.1426C30.4277 33.673 30.6384 34.1817 31.0135 34.5568C31.3886 34.9319 31.8973 35.1426 32.4277 35.1426C32.9582 35.1426 33.4669 34.9319 33.8419 34.5568C34.217 34.1817 34.4277 33.673 34.4277 33.1426V31.1426H46.4277V33.1426C46.4277 33.673 46.6384 34.1817 47.0135 34.5568C47.3886 34.9319 47.8973 35.1426 48.4277 35.1426C48.9582 35.1426 49.4669 34.9319 49.8419 34.5568C50.217 34.1817 50.4277 33.673 50.4277 33.1426V31.1426H54.4277C54.9582 31.1426 55.4669 31.3533 55.8419 31.7284C56.217 32.1034 56.4277 32.6121 56.4277 33.1426V39.1426Z" fill="white"/>
<defs>
<linearGradient id="paint0_linear_41_5581" x1="40.6002" y1="124.799" x2="123" y2="42.3998" gradientUnits="userSpaceOnUse">
<stop stop-color="white" stop-opacity="0.01"/>
<stop offset="1" stop-color="white" stop-opacity="0.5"/>
</linearGradient>
</defs>
</svg>
