<svg width="81" height="83" viewBox="0 0 81 83" fill="none" xmlns="http://www.w3.org/2000/svg">
<path fill-rule="evenodd" clip-rule="evenodd" d="M41 2C63.0916 2 81 19.9086 81 41.9998C81 64.0911 63.0916 81.9997 41 81.9997C18.9089 81.9997 1 64.0911 1 41.9998C1 19.9086 18.9089 2 41 2Z" fill="#BBA664"/>
<path fill-rule="evenodd" clip-rule="evenodd" d="M41 2C63.0916 2 81 19.9086 81 41.9998C81 64.0911 63.0916 81.9997 41 81.9997C18.9089 81.9997 1 64.0911 1 41.9998C1 19.9086 18.9089 2 41 2Z" fill="url(#paint0_linear_41_5572)" style="mix-blend-mode:overlay"/>
<path d="M47.0007 37.9998L39.0007 45.9998L35.0007 41.9998M43.4927 24.9178L45.9347 26.9978C46.5507 27.5218 47.3147 27.8378 48.1187 27.9038L51.3187 28.1598C52.2282 28.2324 53.0822 28.6265 53.7276 29.2715C54.3729 29.9165 54.7675 30.7703 54.8407 31.6798L55.0947 34.8798C55.1607 35.6858 55.4787 36.4518 56.0027 37.0658L58.0827 39.5058C58.6755 40.2007 59.0011 41.0843 59.0011 41.9978C59.0011 42.9112 58.6755 43.7948 58.0827 44.4898L56.0027 46.9318C55.4787 47.5478 55.1607 48.3118 55.0967 49.1178L54.8407 52.3178C54.7681 53.2273 54.3739 54.0813 53.7289 54.7266C53.0839 55.372 52.2302 55.7666 51.3207 55.8398L48.1207 56.0958C47.315 56.1596 46.5501 56.4759 45.9347 56.9998L43.4927 59.0798C42.7975 59.6722 41.914 59.9976 41.0007 59.9976C40.0873 59.9976 39.2038 59.6722 38.5087 59.0798L36.0687 56.9998C35.4528 56.4755 34.687 56.1591 33.8807 56.0958L30.6807 55.8398C29.7709 55.7666 28.9169 55.3717 28.2718 54.7259C27.6268 54.0801 27.2329 53.2257 27.1607 52.3158L26.9047 49.1178C26.8399 48.3126 26.5229 47.5483 25.9987 46.9338L23.9187 44.4898C23.3269 43.7951 23.002 42.9123 23.002 41.9998C23.002 41.0872 23.3269 40.2045 23.9187 39.5098L25.9987 37.0658C26.5247 36.4498 26.8387 35.6858 26.9027 34.8798L27.1587 31.6818C27.2323 30.7716 27.6275 29.9173 28.2736 29.2719C28.9197 28.6266 29.7744 28.2323 30.6847 28.1598L33.8807 27.9058C34.6866 27.8414 35.4516 27.5243 36.0667 26.9998L38.5087 24.9198C39.2038 24.3273 40.0873 24.002 41.0007 24.002C41.914 24.002 42.7975 24.3253 43.4927 24.9178Z" stroke="white" stroke-width="3" stroke-linecap="round" stroke-linejoin="round"/>
<defs>
<linearGradient id="paint0_linear_41_5572" x1="40.6002" y1="124.799" x2="123" y2="42.3998" gradientUnits="userSpaceOnUse">
<stop stop-color="white" stop-opacity="0.01"/>
<stop offset="1" stop-color="white" stop-opacity="0.5"/>
</linearGradient>
</defs>
</svg>
