<svg width="16" height="22" viewBox="0 0 16 22" fill="none" xmlns="http://www.w3.org/2000/svg">
<circle cx="8" cy="8" r="8" transform="matrix(-1 0 0 1 16 2.35254)" fill="#BBA664"/>
<path d="M7.63281 6.27273L7.71804 12.5455H8.70668L8.7919 6.27273H7.63281ZM8.21236 15.0682C8.42259 15.0682 8.60298 14.9929 8.75355 14.8423C8.90412 14.6918 8.9794 14.5114 8.9794 14.3011C8.9794 14.0909 8.90412 13.9105 8.75355 13.7599C8.60298 13.6094 8.42259 13.5341 8.21236 13.5341C8.00213 13.5341 7.82173 13.6094 7.67116 13.7599C7.5206 13.9105 7.44531 14.0909 7.44531 14.3011C7.44531 14.4403 7.48082 14.5682 7.55185 14.6847C7.62003 14.8011 7.71236 14.8949 7.82884 14.9659C7.94247 15.0341 8.07031 15.0682 8.21236 15.0682Z" fill="white"/>
</svg>
