<svg width="351" height="340" viewBox="0 0 351 340" fill="none" xmlns="http://www.w3.org/2000/svg">
<path d="M294.858 139.001C285.013 124.677 262.051 121.887 249.082 133.472C248.948 127.615 247.099 121.926 243.763 117.109C240.428 112.292 235.754 108.559 230.318 106.373C224.883 104.186 218.926 103.642 213.184 104.807C207.442 105.972 202.168 108.796 198.015 112.928C199.868 106.417 193.038 100.07 186.281 99.7207C179.525 99.371 173.267 103.002 167.471 106.492C161.675 109.982 155.38 113.575 148.623 113.122C141.309 112.63 135.23 107.526 128.399 104.885C111.672 98.4185 90.5032 109.892 86.7977 127.438C68.285 119.997 44.5339 132.2 39.876 151.613L310.93 154.775C309.963 150.921 307.951 147.408 305.115 144.625C302.279 141.842 298.729 139.895 294.858 139.001Z" fill="#F5F5F5"/>
<path d="M283.949 51.7728C284.418 48.3649 279.611 45.5598 275.995 45.2696C274.276 45.1356 272.483 45.3961 270.854 44.8306C267.319 43.5954 265.905 39.0267 262.46 37.5758C259.878 36.482 256.91 37.4567 254.409 38.7142C251.909 39.9717 249.439 41.5566 246.641 41.7352C244.216 41.8914 241.574 40.9911 239.453 42.1742C237.869 43.0597 237.035 44.8827 235.577 45.9616C234.118 47.0405 232.288 47.2339 230.51 47.3307C228.731 47.4274 226.908 47.4497 225.301 48.1864C223.694 48.923 222.325 50.6344 222.689 52.3755L283.949 51.7728Z" fill="#FAFAFA"/>
<path d="M47.9937 23.7521C48.2541 21.8472 45.5754 20.2847 43.5292 20.1284C42.5873 20.1593 41.6452 20.0743 40.724 19.8754C38.7522 19.1909 37.9635 16.6387 36.0363 15.8276C34.6002 15.2249 32.9409 15.7607 31.5718 16.4675C30.2027 17.1744 28.7369 18.0227 27.1818 18.1491C25.8201 18.2384 24.3543 17.7325 23.1637 18.3947C22.2783 18.8932 21.8169 19.8829 21.0059 20.5079C20.1553 21.0243 19.173 21.2828 18.1784 21.252C17.185 21.2283 16.1959 21.3898 15.2616 21.7282C14.794 21.904 14.3961 22.2268 14.1277 22.6481C13.8594 23.0694 13.735 23.5665 13.7734 24.0646L47.9937 23.7521Z" fill="#FAFAFA"/>
<path d="M304.192 72.2546C304.728 68.3408 299.207 65.1189 295.055 64.8138C293.068 64.6501 291.014 64.9552 289.102 64.3004C285.04 62.8867 283.417 57.6037 279.429 55.9593C276.453 54.7092 273.052 55.8253 270.173 57.2689C267.293 58.7124 264.458 60.5354 261.244 60.7437C258.446 60.9223 255.418 59.888 252.97 61.2497C251.154 62.2691 250.202 64.3674 248.505 65.6026C246.809 66.8377 244.718 67.0907 242.686 67.18C240.655 67.2693 238.534 67.3139 236.682 68.1622C234.829 69.0104 233.289 70.9748 233.705 72.9764L304.192 72.2546Z" fill="#EBEBEB"/>
<path d="M59.192 85.1371C59.4748 83.0835 56.5803 81.4167 54.4076 81.2233C53.3661 81.2661 52.3235 81.1761 51.3048 80.9554C49.1767 80.2113 48.3285 77.4657 46.2525 76.5877C44.6973 75.9329 42.9115 76.5207 41.4085 77.2722C39.9055 78.0237 38.4322 78.9836 36.7357 79.0952C35.2475 79.1845 33.6849 78.6488 32.4051 79.3631C31.4453 79.8914 30.917 80.9926 30.0687 81.64C29.1526 82.2035 28.0932 82.4903 27.018 82.4659C25.9485 82.4399 24.8835 82.6141 23.878 82.9793C23.3781 83.1733 22.9544 83.5238 22.6701 83.9784C22.3858 84.433 22.2562 84.9674 22.3005 85.5017L59.192 85.1371Z" fill="#EBEBEB"/>
<path d="M135.683 53.6852C136.278 49.3547 130.162 45.7906 125.571 45.4185C123.376 45.2399 121.106 45.5748 119.023 44.853C114.558 43.283 112.728 37.4717 108.345 35.6264C105.064 34.2424 101.284 35.4702 98.1067 37.0699C94.9294 38.6697 91.782 40.6862 88.2253 40.9168C85.1373 41.1103 81.7815 39.9644 79.0731 41.4749C77.0566 42.5984 76.0075 44.92 74.1473 46.2965C72.2871 47.6731 69.9581 47.9186 67.7035 48.0377C65.449 48.1567 63.12 48.1865 61.0663 49.124C59.0127 50.0616 57.3162 52.2492 57.7403 54.4814L135.683 53.6852Z" fill="#F5F5F5"/>
<path d="M10.8486 209.183C10.8486 209.183 4.50908 210.083 8.11787 223.96C11.7267 237.838 14.7625 244.966 14.7625 244.966C14.7625 244.966 15.2462 248.113 12.7088 248.024C10.1715 247.935 5.00761 245.918 3.25158 248.686C1.49555 251.454 3.0358 254.944 7.03151 258.516C11.0272 262.087 19.4725 270.22 20.2315 270.964C20.9905 271.708 21.5485 273.196 19.8148 273.442C18.0811 273.687 5.75169 272.221 5.40198 278.122C5.05226 284.023 17.8356 292.141 19.2121 293.056C20.5887 293.971 20.8044 294.685 20.4994 295.489C20.1943 296.292 16.087 295.422 12.5526 295.161C9.01821 294.901 4.88856 295.221 4.99273 298.644C5.0969 302.067 11.8011 310.69 31.3109 317.06L40.5449 319.419L47.3383 312.677C61.0145 297.371 62.4878 286.552 60.8583 283.539C59.2288 280.525 55.486 282.334 52.5618 284.328C49.6376 286.322 46.5199 289.134 45.8651 288.599C45.2103 288.063 45.0317 287.326 45.7609 285.846C46.4901 284.365 53.4398 270.964 50.2254 266.001C47.011 261.038 37.0031 268.486 35.3735 269.171C33.744 269.855 33.4761 268.241 33.7589 267.236C34.0416 266.232 37.2709 254.929 38.9674 249.84C40.6639 244.75 40.2919 240.992 37.3007 239.422C34.3095 237.852 30.9611 242.295 28.8107 243.649C26.6604 245.003 25.507 242.034 25.507 242.034C25.507 242.034 24.51 234.34 20.6333 220.53C16.7566 206.72 10.6998 209.205 10.6998 209.205" fill="#D6BD6E"/>
<path d="M40.5394 321.711C37.7491 311.554 33.0986 293.436 29.0136 277.87C24.9286 262.304 21.2306 248.255 18.4849 238.084C17.1158 233.009 16.0071 228.894 15.2333 226.044L14.3478 222.763L14.1246 221.915L14.0576 221.617C14.0576 221.617 14.0948 221.714 14.1543 221.907L14.4073 222.748C14.6231 223.492 14.9356 224.601 15.3449 226.007C16.1559 228.842 17.2944 232.95 18.6932 238.024C21.4835 248.181 25.2188 262.244 29.2964 277.795C33.3739 293.347 38.0021 311.487 40.7255 321.659" fill="#E0E0E0"/>
<path d="M10.3809 251.812C10.5912 251.903 10.7929 252.013 10.9836 252.14C11.3705 252.363 11.9137 252.705 12.5833 253.13C13.9152 253.985 15.7234 255.206 17.7026 256.597L22.7475 260.169L24.2803 261.247C24.479 261.365 24.6637 261.505 24.8309 261.664C24.6158 261.581 24.4111 261.474 24.2208 261.344C23.8338 261.121 23.2907 260.779 22.6284 260.347C21.304 259.477 19.5033 258.226 17.5315 256.842L12.4494 253.301L10.9612 252.237C10.7474 252.126 10.5517 251.983 10.3809 251.812Z" fill="#E0E0E0"/>
<path d="M25.5974 261.209C25.523 261.165 27.8892 257.318 30.8729 252.615C33.8567 247.913 36.3345 244.14 36.4015 244.222C36.4684 244.304 34.1097 248.106 31.1259 252.809C28.1422 257.511 25.6644 261.254 25.5974 261.209Z" fill="#E0E0E0"/>
<path d="M30.7832 285.363C30.9328 285.18 31.1026 285.016 31.2892 284.872L32.7253 283.614C33.9307 282.543 35.5974 281.062 37.3758 279.358C39.1541 277.654 40.7167 276.062 41.8402 274.893L43.1721 273.517C43.3226 273.335 43.4951 273.173 43.6856 273.033C43.5608 273.233 43.4162 273.42 43.254 273.591C42.9638 273.941 42.5099 274.432 41.9965 275.035C40.9176 276.24 39.3773 277.862 37.5841 279.566C35.7909 281.27 34.1167 282.736 32.8666 283.763C32.2416 284.276 31.7282 284.685 31.3785 284.953C31.1986 285.115 30.9985 285.253 30.7832 285.363Z" fill="#E0E0E0"/>
<path d="M15.1484 279.938C15.3644 279.962 15.5768 280.012 15.7809 280.086L17.47 280.607C18.8912 281.054 20.8555 281.694 23.0134 282.415C25.1712 283.137 27.1207 283.814 28.5344 284.313L30.1937 284.923C30.4023 284.984 30.6023 285.072 30.789 285.183C30.5733 285.154 30.3613 285.101 30.1565 285.027L28.4675 284.514C27.0388 284.06 25.0819 283.42 22.9166 282.698C20.7514 281.976 18.8093 281.307 17.403 280.801L15.7437 280.198C15.5367 280.132 15.3371 280.045 15.1484 279.938Z" fill="#E0E0E0"/>
<path d="M17.0186 301.807C17.2942 301.85 17.5655 301.917 17.8296 302.008L19.9949 302.662C21.8253 303.228 24.3403 304.031 27.1232 304.895C29.906 305.758 32.4061 306.628 34.2143 307.246L36.3572 307.99C36.6143 308.071 36.8633 308.176 37.1013 308.302C36.8247 308.264 36.5529 308.196 36.2902 308.102L34.1547 307.469C32.3243 306.904 29.8093 306.1 27.0264 305.237C24.2436 304.374 21.7435 303.503 19.9354 302.886L17.7924 302.141C17.5228 302.059 17.2632 301.947 17.0186 301.807Z" fill="#E0E0E0"/>
<path d="M36.6924 308.05C36.88 307.817 37.0893 307.603 37.3174 307.41L39.0809 305.743C40.569 304.329 42.6078 302.38 44.8103 300.155C47.0128 297.93 48.9474 295.877 50.3388 294.374L51.9907 292.588C52.1826 292.361 52.3943 292.152 52.6231 291.963C52.4605 292.21 52.2789 292.444 52.08 292.662C51.7154 293.109 51.1722 293.741 50.4951 294.508C49.1409 296.048 47.2211 298.131 45.0186 300.356C42.8162 302.581 40.7253 304.493 39.2371 305.9C38.4931 306.577 37.8457 307.127 37.4067 307.499C37.1835 307.701 36.9447 307.886 36.6924 308.05Z" fill="#E0E0E0"/>
<path d="M316.934 266.663C316.747 266.281 316.602 265.879 316.503 265.465C316.25 264.684 315.922 263.538 315.535 262.117C314.791 259.282 313.824 255.331 312.804 250.956C311.785 246.581 310.788 242.667 309.977 239.854C309.575 238.448 309.233 237.309 309.002 236.528C308.855 236.127 308.746 235.714 308.675 235.293C308.89 235.661 309.06 236.053 309.181 236.461C309.478 237.205 309.873 238.344 310.312 239.743C311.212 242.54 312.269 246.439 313.288 250.837C314.308 255.234 315.193 259.022 315.878 261.998C316.197 263.345 316.473 264.476 316.689 265.384C316.81 265.802 316.892 266.23 316.934 266.663Z" fill="#E0E0E0"/>
<path d="M307.321 310.186C307.321 310.186 307.202 310.052 307.016 309.769L306.272 308.497C305.602 307.395 304.664 305.773 303.541 303.757C301.309 299.716 298.332 294.032 295.148 287.722C291.963 281.412 289.061 275.698 286.888 271.613L284.299 266.791L283.6 265.466C283.505 265.319 283.432 265.159 283.384 264.99C283.504 265.118 283.606 265.26 283.689 265.414L284.433 266.679C285.103 267.781 286.04 269.403 287.164 271.427C289.396 275.467 292.372 281.144 295.557 287.461C298.742 293.779 301.644 299.478 303.816 303.563L306.406 308.392L307.105 309.702C307.197 309.854 307.27 310.016 307.321 310.186Z" fill="#E0E0E0"/>
<path d="M350.804 339.723C350.804 339.834 272.267 339.924 175.41 339.924C78.5526 339.924 0 339.834 0 339.723C0 339.611 78.5228 339.529 175.41 339.529C272.296 339.529 350.804 339.619 350.804 339.723Z" fill="#263238"/>
<path d="M305.134 147.781H42.7934C36.8059 147.781 31.9521 152.635 31.9521 158.623V324.761C31.9521 330.748 36.8059 335.602 42.7934 335.602H305.134C311.121 335.602 315.975 330.748 315.975 324.761V158.623C315.975 152.635 311.121 147.781 305.134 147.781Z" fill="#455A64"/>
<path d="M20.8506 323.475H328.573V326.942C328.573 330.38 327.207 333.677 324.776 336.107C322.345 338.538 319.048 339.904 315.611 339.904H33.8125C30.3748 339.904 27.0779 338.538 24.647 336.107C22.2162 333.677 20.8506 330.38 20.8506 326.942V323.475Z" fill="#455A64"/>
<path d="M307.55 155.244H39.5693V313.86H307.55V155.244Z" fill="#263238"/>
<path d="M145.96 321.719L149.785 327.79H203.515L207.056 321.719H145.96Z" fill="#263238"/>
<path d="M300.155 160.617H47.5249C46.1812 160.617 45.0918 161.707 45.0918 163.05V310.921C45.0918 312.265 46.1812 313.355 47.5249 313.355H300.155C301.499 313.355 302.588 312.265 302.588 310.921V163.05C302.588 161.707 301.499 160.617 300.155 160.617Z" fill="#EBEBEB"/>
<path d="M302.313 313.578H44.8164L45.0917 172.031H302.313V313.578Z" fill="#FAFAFA"/>
<path d="M66.2079 166.518C66.2064 166.924 66.0847 167.32 65.8582 167.657C65.6316 167.994 65.3104 168.256 64.935 168.41C64.5596 168.564 64.1469 168.604 63.749 168.524C63.3512 168.444 62.9859 168.248 62.6995 167.96C62.413 167.673 62.2181 167.307 62.1395 166.909C62.0609 166.51 62.102 166.098 62.2576 165.723C62.4133 165.348 62.6765 165.028 63.0141 164.803C63.3516 164.577 63.7484 164.457 64.1542 164.457C64.4246 164.457 64.6922 164.51 64.9419 164.614C65.1915 164.718 65.4182 164.87 65.609 165.061C65.7998 165.253 65.9509 165.48 66.0537 165.73C66.1565 165.98 66.2089 166.248 66.2079 166.518Z" fill="#263238"/>
<path d="M53.7453 166.518C53.7453 166.926 53.6242 167.325 53.3974 167.664C53.1706 168.003 52.8482 168.267 52.4712 168.423C52.0941 168.579 51.6793 168.619 51.2793 168.539C50.8793 168.459 50.5121 168.262 50.2241 167.973C49.9361 167.684 49.7404 167.316 49.6617 166.916C49.5831 166.515 49.6249 166.101 49.7821 165.724C49.9392 165.348 50.2046 165.026 50.5445 164.801C50.8844 164.575 51.2836 164.456 51.6916 164.457C51.9619 164.457 52.2296 164.51 52.4792 164.614C52.7289 164.718 52.9556 164.87 53.1464 165.061C53.3372 165.253 53.4883 165.48 53.5911 165.73C53.6938 165.98 53.7462 166.248 53.7453 166.518Z" fill="#263238"/>
<path d="M59.7284 166.518C59.7269 166.924 59.6052 167.32 59.3787 167.657C59.1521 167.994 58.8309 168.256 58.4555 168.41C58.0801 168.564 57.6674 168.604 57.2696 168.524C56.8717 168.444 56.5064 168.248 56.22 167.96C55.9335 167.673 55.7387 167.307 55.66 166.909C55.5814 166.51 55.6225 166.098 55.7781 165.723C55.9338 165.348 56.197 165.028 56.5346 164.803C56.8721 164.577 57.2689 164.457 57.6747 164.457C57.9451 164.457 58.2127 164.51 58.4624 164.614C58.712 164.718 58.9387 164.87 59.1295 165.061C59.3203 165.253 59.4715 165.48 59.5742 165.73C59.677 165.98 59.7294 166.248 59.7284 166.518Z" fill="#263238"/>
<path d="M313.534 321.717C313.534 321.814 250.496 321.896 172.747 321.896C94.9981 321.896 31.9521 321.814 31.9521 321.717C31.9521 321.621 94.9758 321.531 172.747 321.531C250.518 321.531 313.534 321.606 313.534 321.717Z" fill="#263238"/>
<path d="M275.192 232.972C271.604 236.066 268.94 240.09 267.496 244.602C266.052 249.114 265.882 253.937 267.007 258.539C263.651 257.877 260.185 258.049 256.911 259.04C253.638 260.031 250.658 261.811 248.233 264.223C245.809 266.635 244.014 269.606 243.006 272.874C241.998 276.143 241.808 279.608 242.452 282.967C235.078 277.892 223.806 279.79 218.5 287.007C218.389 282.245 218.203 277.223 215.702 273.168C213.202 269.112 207.518 266.612 203.507 269.187C205.027 267.455 205.95 265.28 206.141 262.984C206.332 260.687 205.779 258.39 204.566 256.432C203.352 254.473 201.541 252.956 199.4 252.104C197.259 251.252 194.901 251.111 192.673 251.701C192.562 245.986 188.953 205.523 185.976 171.385H160.559C157.582 204.928 154.182 243.456 154.07 249.03C151.837 248.427 149.469 248.561 147.318 249.412C145.167 250.263 143.348 251.786 142.131 253.754C140.915 255.722 140.366 258.029 140.567 260.334C140.767 262.639 141.706 264.817 143.244 266.545C139.233 263.971 133.571 266.478 131.048 270.526C128.526 274.574 128.355 279.604 128.243 284.366C122.938 277.156 111.673 275.251 104.291 280.326C104.936 276.967 104.746 273.501 103.738 270.233C102.73 266.965 100.935 263.994 98.51 261.582C96.0854 259.17 93.1055 257.39 89.8321 256.399C86.5588 255.408 83.0921 255.235 79.7367 255.897C80.9289 251.295 80.7904 246.45 79.3373 241.923C77.8842 237.397 75.1761 233.376 71.528 230.328C67.8798 227.28 63.4414 225.33 58.7288 224.705C54.0162 224.08 49.2229 224.805 44.9062 226.796V313.504H301.837V229.423C297.501 227.497 292.716 226.809 288.013 227.435C283.31 228.062 278.872 229.978 275.192 232.972Z" fill="#D6BD6D"/>
<g opacity="0.8">
<path d="M275.191 232.972C271.603 236.066 268.939 240.09 267.495 244.602C266.051 249.114 265.881 253.937 267.006 258.539C263.65 257.877 260.184 258.049 256.91 259.04C253.637 260.031 250.657 261.811 248.232 264.223C245.808 266.635 244.013 269.606 243.005 272.874C241.997 276.143 241.807 279.608 242.451 282.967C235.077 277.892 223.805 279.79 218.499 287.007C218.388 282.245 218.202 277.223 215.702 273.168C213.201 269.112 207.517 266.612 203.506 269.187C205.026 267.455 205.949 265.28 206.14 262.984C206.331 260.687 205.778 258.39 204.565 256.432C203.351 254.473 201.54 252.956 199.399 252.104C197.258 251.252 194.9 251.111 192.672 251.701C192.561 245.986 188.952 205.523 185.975 171.385H160.558C157.581 204.928 154.181 243.456 154.069 249.03C151.836 248.427 149.468 248.561 147.317 249.412C145.166 250.263 143.347 251.786 142.13 253.754C140.914 255.722 140.365 258.029 140.566 260.334C140.766 262.639 141.705 264.817 143.243 266.545C139.232 263.971 133.57 266.478 131.047 270.526C128.525 274.574 128.354 279.604 128.242 284.366C122.937 277.156 111.672 275.251 104.29 280.326C104.935 276.967 104.745 273.501 103.737 270.233C102.729 266.965 100.934 263.994 98.5091 261.582C96.0844 259.17 93.1045 257.39 89.8312 256.399C86.5578 255.408 83.0911 255.235 79.7357 255.897C80.9279 251.295 80.7894 246.45 79.3363 241.923C77.8832 237.397 75.1752 233.376 71.527 230.328C67.8788 227.28 63.4405 225.33 58.7278 224.705C54.0152 224.08 49.2219 224.805 44.9053 226.796V313.504H301.836V229.423C297.5 227.497 292.715 226.809 288.012 227.435C283.309 228.062 278.871 229.978 275.191 232.972Z" fill="white"/>
</g>
<path d="M273.621 296.189C269.01 293.092 263.813 290.974 258.351 289.965C252.888 288.957 247.277 289.08 241.864 290.327C236.451 291.574 231.352 293.919 226.881 297.215C222.411 300.512 218.664 304.691 215.873 309.493C213.613 306.439 210.66 303.966 207.257 302.276C207.498 301.634 207.699 300.978 207.859 300.312C208.518 297.461 208.438 294.489 207.627 291.678C206.816 288.867 205.3 286.31 203.224 284.248C201.149 282.186 198.581 280.688 195.764 279.897C192.948 279.105 189.976 279.045 187.129 279.723L179.525 171.385H169.554V271.01C163.378 271.955 159.07 279.269 161.25 285.147C159.099 285.482 157.061 286.334 155.311 287.63C153.561 288.926 152.152 290.627 151.205 292.588C150.61 293.868 150.521 296.576 151.034 299.642C147.27 299.711 143.571 300.637 140.218 302.35C136.866 304.064 133.948 306.52 131.688 309.531C128.897 304.728 125.15 300.549 120.68 297.253C116.209 293.956 111.11 291.612 105.697 290.365C100.284 289.118 94.6729 288.994 89.2105 290.003C83.7482 291.011 78.5508 293.129 73.9398 296.227C71.3281 283.577 57.1831 274.589 44.623 277.625V313.735L160.543 313.586C161.34 313.813 162.163 313.928 162.991 313.928L191.326 313.593L302.99 313.735V277.558C290.4 274.551 276.255 283.54 273.621 296.189Z" fill="#D6BD6D"/>
<g opacity="0.6">
<path d="M273.621 296.189C269.01 293.092 263.813 290.974 258.351 289.965C252.888 288.957 247.277 289.08 241.864 290.327C236.451 291.574 231.352 293.919 226.881 297.215C222.411 300.512 218.664 304.691 215.873 309.493C213.613 306.439 210.66 303.966 207.257 302.276C207.498 301.634 207.699 300.978 207.859 300.312C208.518 297.461 208.438 294.489 207.627 291.678C206.816 288.867 205.3 286.31 203.224 284.248C201.149 282.186 198.581 280.688 195.764 279.897C192.948 279.105 189.976 279.045 187.129 279.723L179.525 171.385H169.554V271.01C163.378 271.955 159.07 279.269 161.25 285.147C159.099 285.482 157.061 286.334 155.311 287.63C153.561 288.926 152.152 290.627 151.205 292.588C150.61 293.868 150.521 296.576 151.034 299.642C147.27 299.711 143.571 300.637 140.218 302.35C136.866 304.064 133.948 306.52 131.688 309.531C128.897 304.728 125.15 300.549 120.68 297.253C116.209 293.956 111.11 291.612 105.697 290.365C100.284 289.118 94.6729 288.994 89.2105 290.003C83.7482 291.011 78.5508 293.129 73.9398 296.227C71.3281 283.577 57.1831 274.589 44.623 277.625V313.735L160.543 313.586C161.34 313.813 162.163 313.928 162.991 313.928L191.326 313.593L302.99 313.735V277.558C290.4 274.551 276.255 283.54 273.621 296.189Z" fill="white"/>
</g>
<path d="M163.683 137.469C157.969 140.185 155.379 148.012 158.356 153.6C159.531 155.833 161.451 157.745 161.704 160.23C162.091 164.04 158.49 167.016 157.373 170.647C156.807 172.824 157.104 175.134 158.203 177.097C159.301 179.059 161.116 180.521 163.267 181.176C165.224 181.689 167.567 181.6 168.877 183.14C170.551 185.105 169.338 188.349 170.774 190.514C172.062 192.456 175.075 192.553 177.017 191.258C178.959 189.964 180.031 187.724 180.797 185.521C181.564 183.319 182.136 181.005 183.461 179.085C184.949 176.979 187.144 175.536 188.915 173.683C193.171 169.219 194.473 162.522 193.513 156.413C192.554 150.304 189.6 144.716 186.259 139.53" fill="#D6BD6D"/>
<g opacity="0.3">
<path d="M163.684 137.469C157.97 140.185 155.38 148.012 158.357 153.6C159.532 155.833 161.452 157.745 161.705 160.23C162.092 164.04 158.491 167.016 157.374 170.647C156.808 172.824 157.105 175.134 158.204 177.097C159.302 179.059 161.116 180.521 163.268 181.176C165.225 181.689 167.568 181.6 168.878 183.14C170.552 185.105 169.339 188.349 170.775 190.514C172.063 192.456 175.076 192.553 177.018 191.258C178.96 189.964 180.032 187.724 180.798 185.521C181.565 183.319 182.137 181.005 183.462 179.085C184.95 176.979 187.145 175.536 188.916 173.683C193.172 169.219 194.474 162.522 193.514 156.413C192.555 150.304 189.601 144.716 186.26 139.53" fill="white"/>
</g>
<path d="M168.705 140.682C163.861 142.817 161.741 149.536 164.479 154.075C166.153 156.843 169.397 159.343 168.608 162.476C168.073 164.604 165.796 165.906 165.141 167.997C164.27 170.78 166.904 173.734 169.806 174.083C172.708 174.433 175.506 172.885 177.701 170.958C185.298 164.262 187.151 151.166 182.411 142.229" fill="#D6BD6D"/>
<path d="M193.676 98.0918C193.676 98.0918 218.558 114.551 215.842 143.027L192.969 132.759L193.676 98.0918Z" fill="#D6BD6D"/>
<path d="M152.336 132.186L157.991 141.554H187.315L192.97 132.721L152.336 132.186Z" fill="#263238"/>
<path d="M171.131 37.6659C165.551 38.0399 160.33 40.5496 156.552 44.6735C152.775 48.7975 150.732 54.2184 150.847 59.8098L152.336 132.73H192.97L194.324 59.7726C194.381 56.7605 193.812 53.7695 192.652 50.9891C191.493 48.2087 189.768 45.6996 187.587 43.6211C185.406 41.5426 182.817 39.9399 179.985 38.9148C177.152 37.8896 174.137 37.4643 171.131 37.6659Z" fill="#D6BD6D"/>
<g opacity="0.8">
<path d="M171.131 37.6659C165.551 38.0399 160.33 40.5496 156.552 44.6735C152.775 48.7975 150.732 54.2184 150.847 59.8098L152.336 132.73H192.97L194.324 59.7726C194.381 56.7605 193.812 53.7695 192.652 50.9891C191.493 48.2087 189.768 45.6996 187.587 43.6211C185.406 41.5426 182.817 39.9399 179.985 38.9148C177.152 37.8896 174.137 37.4643 171.131 37.6659Z" fill="white"/>
</g>
<path d="M151.59 98.0918C151.59 98.0918 126.738 114.551 129.461 143.027L152.334 132.744L151.59 98.0918Z" fill="#D6BD6D"/>
<path d="M151.07 57.3904C159.665 49.8677 186.638 50.0314 193.877 56.1552C192.017 29.0855 171.347 18.9512 171.347 18.9512C150.2 33.5947 151.07 57.3904 151.07 57.3904Z" fill="#D6BD6D"/>
<path d="M171.346 18.957L171.591 19.1803C171.748 19.3291 171.986 19.5449 172.283 19.835L173.414 20.9065L174.158 21.5911L174.902 22.4244C175.438 23.0123 176.048 23.6596 176.696 24.3888L178.675 26.8592C179.01 27.3131 179.345 27.8042 179.694 28.2952C180.044 28.7863 180.438 29.2923 180.751 29.8504C181.413 30.9516 182.15 32.0826 182.782 33.3848C184.234 36.1523 185.36 39.0787 186.138 42.1054C186.577 43.7881 186.902 45.4984 187.113 47.2247C187.239 48.1175 187.306 49.0253 187.433 49.9257C187.514 50.8609 187.546 51.7997 187.529 52.7383C187.529 60.2907 187.433 68.5947 187.336 77.293C187.128 94.7342 186.882 110.516 186.696 121.938C186.599 127.645 186.517 132.266 186.458 135.465C186.458 137.057 186.398 138.3 186.384 139.186C186.384 139.602 186.384 139.93 186.384 140.138C186.384 140.346 186.384 140.465 186.384 140.465C186.384 140.465 186.384 140.354 186.384 140.138C186.384 139.922 186.384 139.602 186.384 139.186C186.384 138.337 186.384 137.095 186.421 135.465C186.458 132.266 186.518 127.645 186.584 121.938C186.733 110.501 186.934 94.7193 187.165 77.293C187.262 68.5723 187.373 60.2684 187.373 52.7383C187.394 51.8096 187.361 50.8805 187.276 49.9554C187.157 49.0402 187.09 48.1399 186.971 47.2544C186.764 45.5332 186.44 43.8279 186.004 42.15C185.236 39.1362 184.125 36.2202 182.693 33.4592C182.023 32.157 181.287 31.026 180.61 29.9248C180.282 29.3667 179.865 28.8756 179.56 28.3697C179.255 27.8637 178.891 27.3875 178.556 26.9336L176.591 24.4558C175.952 23.7117 175.349 23.0792 174.813 22.484L174.069 21.6432L173.362 20.9512L172.246 19.8648L171.569 19.1951L171.346 18.957Z" fill="#263238"/>
<path d="M180.849 75.8296C182.127 70.0431 178.803 64.3899 173.426 63.2027C168.049 62.0156 162.654 65.744 161.377 71.5305C160.099 77.317 163.423 82.9702 168.8 84.1574C174.177 85.3445 179.572 81.6161 180.849 75.8296Z" fill="#FAFAFA"/>
<path d="M173.421 63.2016C173.365 63.2098 173.307 63.2098 173.25 63.2016L172.767 63.1346L172.409 63.0751H171.97H171.464C171.278 63.0751 171.085 63.0751 170.884 63.0751C170.431 63.1032 169.981 63.1629 169.537 63.2536C169.009 63.3657 168.491 63.5225 167.99 63.7224C166.764 64.2113 165.643 64.9284 164.686 65.8356C163.525 66.9307 162.619 68.2666 162.029 69.7495C161.865 70.154 161.729 70.5692 161.62 70.9921C161.568 71.2079 161.501 71.4236 161.449 71.6394L161.337 72.3091L161.278 72.6514V72.9937C161.278 73.2243 161.241 73.4624 161.226 73.6931C161.211 73.9238 161.226 74.1619 161.226 74.4V74.7571L161.263 75.1217C161.459 77.1433 162.234 79.0655 163.495 80.6577C164.823 82.3881 166.719 83.5949 168.849 84.0658C170.979 84.5367 173.206 84.2415 175.14 83.2322C176.945 82.307 178.448 80.8843 179.471 79.1323L179.657 78.8272L179.813 78.4999L180.126 77.8674L180.371 77.2126L180.49 76.8852L180.587 76.5504L180.765 75.8956C180.818 75.6798 180.84 75.4566 180.884 75.2408C180.959 74.81 181.009 74.3752 181.033 73.9386C181.132 72.3452 180.878 70.7496 180.289 69.2658C179.608 67.5291 178.463 66.013 176.978 64.8832C176.612 64.6109 176.23 64.3624 175.832 64.1391C175.646 64.0498 175.482 63.9456 175.319 63.8712L174.85 63.6778L174.441 63.5141L174.098 63.4099L173.622 63.2685C173.568 63.2546 173.516 63.2347 173.466 63.209H173.63L174.106 63.3281L174.463 63.4248L174.872 63.581L175.349 63.7671L175.869 64.0275C176.277 64.2498 176.67 64.4984 177.045 64.7716C177.48 65.1007 177.89 65.4613 178.273 65.8505C179.198 66.8108 179.931 67.9399 180.431 69.1765C181.046 70.6775 181.318 72.2968 181.227 73.9163C181.209 74.3604 181.162 74.8029 181.085 75.2408C181.041 75.464 181.018 75.6872 180.966 75.9105C180.914 76.1337 180.847 76.3569 180.78 76.5801L180.691 76.915L180.572 77.2424L180.319 77.912L180.006 78.5594L179.85 78.8942L179.657 79.2067C178.624 80.9974 177.094 82.45 175.252 83.3885C173.276 84.4252 170.998 84.7302 168.819 84.2496C166.641 83.7689 164.702 82.5336 163.346 80.7619C162.073 79.1313 161.298 77.1675 161.114 75.1068V74.7422V74.3776C161.114 74.1395 161.114 73.894 161.114 73.6336C161.114 73.3731 161.114 73.1574 161.174 72.8895V72.5398L161.226 72.1901C161.271 71.9668 161.308 71.7362 161.345 71.5129C161.382 71.2897 161.464 71.0739 161.524 70.8507C161.633 70.4216 161.775 70.0013 161.948 69.5932C162.547 68.0858 163.475 66.731 164.664 65.6273C165.639 64.7163 166.781 64.0015 168.027 63.5215C168.536 63.3237 169.061 63.1693 169.597 63.0602C170.046 62.9742 170.501 62.9195 170.958 62.8965C171.167 62.8965 171.36 62.8965 171.546 62.8965H172.06H172.499L172.856 62.9635L173.339 63.0527L173.421 63.2016Z" fill="#263238"/>
<path d="M160.833 72.0704C160.833 72.1969 158.541 72.1374 155.781 72.6359C153.02 73.1345 150.892 73.9678 150.848 73.8488C151.257 73.551 151.715 73.3269 152.202 73.1866C154.48 72.3316 156.897 71.9028 159.33 71.9216C159.836 71.8893 160.344 71.9395 160.833 72.0704Z" fill="#263238"/>
<path d="M193.684 72.0556C193.069 72.0596 192.456 72.0023 191.853 71.8844C190.737 71.7505 189.189 71.5719 187.478 71.4454C185.767 71.3189 184.211 71.2891 183.08 71.2668C182.469 71.2995 181.856 71.2721 181.25 71.185C181.845 71.0305 182.459 70.9604 183.073 70.9766C184.561 70.9091 186.052 70.929 187.537 71.0362C189.01 71.1386 190.476 71.3249 191.928 71.5942C192.53 71.6747 193.12 71.8297 193.684 72.0556Z" fill="#263238"/>
<path d="M193.907 113.785C193.764 113.804 193.619 113.804 193.476 113.785L192.248 113.688L187.732 113.346C183.922 113.078 178.646 112.817 172.85 112.825C167.054 112.832 161.748 113.1 157.931 113.375L153.422 113.732L152.194 113.822C152.051 113.843 151.906 113.843 151.763 113.822C151.9 113.773 152.042 113.743 152.187 113.732L153.407 113.561C154.464 113.42 156.004 113.249 157.872 113.078C161.681 112.72 166.972 112.408 172.813 112.401C178.654 112.393 183.974 112.698 187.746 113.048C189.659 113.219 191.192 113.383 192.256 113.524L193.476 113.688C193.623 113.7 193.769 113.733 193.907 113.785Z" fill="#263238"/>
<path d="M161.912 82.526C161.912 82.5855 161.659 82.6078 161.488 82.898C161.438 82.9727 161.405 83.0572 161.391 83.1458C161.377 83.2344 161.382 83.325 161.406 83.4114C161.444 83.5029 161.508 83.5813 161.59 83.6369C161.672 83.6924 161.768 83.7227 161.867 83.7239C161.967 83.7389 162.068 83.7243 162.16 83.682C162.251 83.6397 162.328 83.5714 162.381 83.4858C162.418 83.404 162.437 83.3152 162.437 83.2254C162.437 83.1356 162.418 83.0468 162.381 82.965C162.254 82.6524 162.009 82.5929 162.023 82.5334C162.038 82.4739 162.366 82.4218 162.641 82.8236C162.719 82.9436 162.767 83.0801 162.783 83.2222C162.798 83.3644 162.78 83.5082 162.73 83.6421C162.655 83.8089 162.529 83.9473 162.37 84.037C162.21 84.1267 162.026 84.163 161.845 84.1406C161.688 84.1323 161.537 84.0801 161.409 83.9899C161.281 83.8997 161.181 83.7752 161.121 83.6307C161.06 83.4862 161.041 83.3275 161.067 83.1729C161.092 83.0183 161.161 82.874 161.265 82.7566C161.592 82.3623 161.942 82.4739 161.912 82.526Z" fill="#263238"/>
<path d="M170.767 87.2951C170.767 87.3621 170.514 87.3844 170.343 87.6746C170.294 87.7485 170.262 87.8318 170.248 87.9189C170.234 88.006 170.238 88.0952 170.261 88.1805C170.297 88.274 170.36 88.3546 170.442 88.4116C170.524 88.4687 170.622 88.4997 170.722 88.5005C170.822 88.5138 170.924 88.4977 171.015 88.4541C171.106 88.4105 171.183 88.3413 171.235 88.255C171.27 88.1739 171.288 88.0865 171.288 87.9983C171.288 87.91 171.27 87.8226 171.235 87.7415C171.101 87.429 170.856 87.3695 170.871 87.31C170.886 87.2504 171.213 87.1984 171.488 87.6002C171.566 87.7188 171.615 87.8541 171.63 87.995C171.646 88.1359 171.628 88.2786 171.578 88.4112C171.503 88.5787 171.377 88.718 171.218 88.809C171.058 88.8999 170.874 88.9378 170.692 88.9172C170.528 88.9152 170.369 88.8649 170.234 88.7728C170.098 88.6806 169.993 88.5506 169.931 88.399C169.869 88.2473 169.853 88.0808 169.885 87.9202C169.918 87.7596 169.996 87.6121 170.112 87.496C170.447 87.1388 170.796 87.2207 170.767 87.2951Z" fill="#263238"/>
<path d="M180.536 83.2241C180.536 83.291 180.291 83.3134 180.112 83.6035C180.064 83.6775 180.032 83.7607 180.018 83.8479C180.004 83.935 180.008 84.0241 180.03 84.1095C180.069 84.2025 180.134 84.2822 180.217 84.339C180.301 84.3957 180.399 84.4272 180.499 84.4295C180.598 84.4442 180.7 84.4287 180.79 84.3849C180.88 84.3411 180.955 84.271 181.005 84.1839C181.04 84.1029 181.058 84.0155 181.058 83.9272C181.058 83.8389 181.04 83.7516 181.005 83.6705C180.879 83.358 180.626 83.2985 180.641 83.2315C180.655 83.1645 180.983 83.1273 181.258 83.5291C181.339 83.6464 181.39 83.7814 181.407 83.9227C181.423 84.064 181.406 84.2073 181.355 84.3402C181.277 84.5068 181.149 84.6451 180.989 84.7357C180.829 84.8264 180.645 84.865 180.462 84.8462C180.279 84.8386 180.104 84.7733 179.961 84.6596C179.818 84.5459 179.715 84.3898 179.666 84.2137C179.636 84.0745 179.641 83.9304 179.678 83.7932C179.716 83.656 179.785 83.5297 179.882 83.425C180.216 83.0678 180.566 83.1794 180.536 83.2241Z" fill="#263238"/>
<path d="M183.713 75.9259C183.713 75.9854 183.46 76.0077 183.282 76.2979C183.234 76.3737 183.204 76.4585 183.191 76.5468C183.178 76.6352 183.184 76.7253 183.207 76.8113C183.243 76.9048 183.306 76.9854 183.389 77.0424C183.471 77.0995 183.568 77.1305 183.668 77.1313C183.768 77.144 183.868 77.1276 183.958 77.084C184.048 77.0403 184.123 76.9715 184.174 76.8857C184.21 76.8047 184.228 76.7173 184.228 76.629C184.228 76.5407 184.21 76.4534 184.174 76.3723C184.048 76.0598 183.802 75.9928 183.81 75.9333C183.817 75.8738 184.152 75.8291 184.435 76.231C184.513 76.3493 184.562 76.4846 184.578 76.6257C184.593 76.7667 184.575 76.9094 184.524 77.042C184.448 77.2081 184.322 77.3458 184.163 77.4354C184.004 77.525 183.82 77.5618 183.639 77.5405C183.455 77.5334 183.279 77.4683 183.134 77.3547C182.99 77.2411 182.885 77.0848 182.835 76.9081C182.806 76.7689 182.811 76.6249 182.848 76.4878C182.886 76.3507 182.955 76.2244 183.051 76.1193C183.386 75.7696 183.735 75.8812 183.713 75.9259Z" fill="#263238"/>
<path d="M158.682 75.2188C158.682 75.2784 158.429 75.3007 158.258 75.5909C158.21 75.6663 158.178 75.7508 158.164 75.8391C158.15 75.9274 158.154 76.0177 158.176 76.1043C158.213 76.1972 158.276 76.2772 158.358 76.3341C158.441 76.3911 158.538 76.4224 158.638 76.4243C158.738 76.4357 158.839 76.4187 158.93 76.3753C159.02 76.3319 159.097 76.2637 159.151 76.1787C159.188 76.0981 159.207 76.0106 159.207 75.922C159.207 75.8334 159.188 75.7459 159.151 75.6653C159.024 75.3528 158.779 75.2858 158.794 75.2263C158.809 75.1668 159.136 75.1221 159.411 75.5239C159.49 75.6423 159.539 75.7776 159.554 75.9186C159.57 76.0597 159.551 76.2024 159.501 76.335C159.426 76.5018 159.299 76.6402 159.14 76.7299C158.981 76.8196 158.797 76.8559 158.615 76.8335C158.432 76.8263 158.255 76.7613 158.111 76.6477C157.966 76.5341 157.862 76.3778 157.812 76.201C157.782 76.0613 157.788 75.9166 157.826 75.7793C157.865 75.6419 157.937 75.516 158.035 75.4123C158.362 75.0626 158.712 75.1742 158.682 75.2188Z" fill="#263238"/>
<path d="M180.521 65.2031C180.521 65.1436 180.774 65.1213 180.945 64.8311C180.995 64.7564 181.028 64.6719 181.042 64.5833C181.056 64.4947 181.051 64.4041 181.027 64.3177C180.989 64.2259 180.925 64.1469 180.843 64.0902C180.762 64.0335 180.665 64.0014 180.566 63.9977C180.467 63.985 180.366 64.0014 180.276 64.0451C180.186 64.0887 180.111 64.1576 180.06 64.2433C180.021 64.3233 180.001 64.4111 180.001 64.5C180.001 64.5889 180.021 64.6767 180.06 64.7567C180.186 65.0692 180.432 65.1362 180.417 65.1957C180.402 65.2552 180.075 65.2999 179.799 64.8981C179.721 64.7797 179.672 64.6444 179.657 64.5033C179.641 64.3623 179.66 64.2196 179.71 64.087C179.785 63.9202 179.912 63.7818 180.071 63.6921C180.23 63.6024 180.414 63.5661 180.596 63.5885C180.759 63.5905 180.919 63.6407 181.054 63.7329C181.19 63.8251 181.295 63.9551 181.357 64.1067C181.419 64.2584 181.435 64.4249 181.402 64.5855C181.37 64.746 181.292 64.8936 181.176 65.0097C180.841 65.3668 180.491 65.2478 180.521 65.2031Z" fill="#263238"/>
<path d="M170.752 60.8738C170.752 60.8142 171.005 60.7919 171.176 60.5017C171.224 60.4263 171.256 60.3418 171.27 60.2535C171.284 60.1652 171.28 60.075 171.258 59.9883C171.218 59.8959 171.153 59.8167 171.07 59.7601C170.987 59.7034 170.889 59.6716 170.789 59.6684C170.69 59.6556 170.589 59.6721 170.499 59.7157C170.409 59.7593 170.334 59.8282 170.283 59.9139C170.248 59.995 170.23 60.0823 170.23 60.1706C170.23 60.2589 170.248 60.3463 170.283 60.4273C170.409 60.7473 170.662 60.8068 170.647 60.8663C170.633 60.9259 170.305 60.9779 170.03 60.5687C169.931 60.4367 169.874 60.2782 169.866 60.1136C169.858 59.949 169.9 59.7858 169.985 59.6449C170.071 59.5041 170.197 59.3921 170.347 59.3233C170.496 59.2546 170.663 59.2322 170.826 59.2591C171.009 59.2667 171.184 59.332 171.327 59.4457C171.47 59.5593 171.573 59.7155 171.622 59.8916C171.651 60.0308 171.646 60.1748 171.609 60.3119C171.571 60.449 171.502 60.5752 171.406 60.6803C171.072 61.0375 170.722 60.9259 170.752 60.8738Z" fill="#263238"/>
<path d="M161.094 65.2039C161.094 65.1443 161.347 65.122 161.518 64.8318C161.566 64.7564 161.598 64.6719 161.613 64.5836C161.627 64.4953 161.622 64.405 161.6 64.3184C161.561 64.226 161.496 64.1468 161.413 64.0901C161.33 64.0335 161.232 64.0016 161.132 63.9984C161.032 63.9857 160.932 64.0022 160.842 64.0458C160.752 64.0894 160.677 64.1583 160.626 64.244C160.591 64.325 160.572 64.4124 160.572 64.5007C160.572 64.589 160.591 64.6764 160.626 64.7574C160.752 65.0699 161.005 65.1369 160.99 65.1964C160.975 65.2559 160.648 65.3006 160.373 64.8988C160.274 64.7668 160.217 64.6083 160.209 64.4437C160.201 64.2791 160.243 64.1158 160.328 63.975C160.414 63.8342 160.54 63.7222 160.689 63.6534C160.839 63.5847 161.006 63.5623 161.169 63.5892C161.351 63.5968 161.527 63.6621 161.67 63.7758C161.813 63.8894 161.916 64.0455 161.965 64.2217C161.994 64.3608 161.989 64.5049 161.952 64.6419C161.914 64.779 161.845 64.9053 161.749 65.0104C161.414 65.3676 161.065 65.2485 161.094 65.2039Z" fill="#263238"/>
<path d="M169.517 101.083L170.388 144.619C170.401 145.224 170.654 145.798 171.091 146.217C171.527 146.635 172.112 146.864 172.717 146.852C173.304 146.838 173.865 146.599 174.28 146.183C174.696 145.767 174.936 145.207 174.949 144.619C175.038 136.777 175.328 110.392 175.373 101.039C175.374 100.617 175.285 100.199 175.11 99.8151C174.935 99.4311 174.679 99.0895 174.359 98.8137C174.039 98.538 173.664 98.3348 173.259 98.2179C172.853 98.101 172.427 98.0733 172.01 98.1367C171.308 98.2428 170.668 98.6 170.21 99.1419C169.752 99.6838 169.505 100.374 169.517 101.083Z" fill="#D6BD6D"/>
<g opacity="0.3">
<path d="M169.517 101.083L170.388 144.619C170.401 145.224 170.654 145.798 171.091 146.217C171.527 146.635 172.112 146.864 172.717 146.852C173.304 146.838 173.865 146.599 174.28 146.183C174.696 145.767 174.936 145.207 174.949 144.619C175.038 136.777 175.328 110.392 175.373 101.039C175.374 100.617 175.285 100.199 175.11 99.8151C174.935 99.4311 174.679 99.0895 174.359 98.8137C174.039 98.538 173.664 98.3348 173.259 98.2179C172.853 98.101 172.427 98.0733 172.01 98.1367C171.308 98.2428 170.668 98.6 170.21 99.1419C169.752 99.6838 169.505 100.374 169.517 101.083Z" fill="black"/>
</g>
<path d="M170.864 21.4449C170.991 21.5937 169.547 22.9926 167.442 25.448C166.385 26.6683 165.209 28.1863 163.967 29.9125C162.646 31.8068 161.428 33.7716 160.321 35.7982C159.242 37.8369 158.275 39.9334 157.426 42.0782C156.682 44.0649 156.05 45.8879 155.611 47.4431C154.725 50.5533 154.353 52.5326 154.123 52.5028C153.892 52.473 154.041 50.4491 154.725 47.2273C155.135 45.3445 155.667 43.4903 156.318 41.6764C157.123 39.4545 158.083 37.2914 159.19 35.2029C160.327 33.1367 161.599 31.1481 163 29.2503C164.156 27.7071 165.411 26.2407 166.757 24.8602C169.101 22.4866 170.768 21.3333 170.864 21.4449Z" fill="white"/>
<path d="M150.675 102.422C150.794 102.608 148.733 103.91 145.861 106.604L144.752 107.66C144.365 108.033 144.008 108.457 143.606 108.866C142.795 109.684 142.036 110.652 141.211 111.641C139.486 113.842 137.955 116.187 136.634 118.651C135.347 121.135 134.272 123.724 133.42 126.389C133.07 127.624 132.676 128.8 132.482 129.923C132.363 130.489 132.222 131.025 132.133 131.553C132.043 132.081 131.962 132.58 131.887 133.041C131.307 136.918 131.359 139.366 131.143 139.373C131.054 139.373 130.972 138.77 130.898 137.654C130.898 137.372 130.86 137.059 130.845 136.724C130.831 136.389 130.845 136.017 130.845 135.623C130.851 134.726 130.903 133.829 131.002 132.937C131.054 132.438 131.113 131.917 131.173 131.374C131.232 130.831 131.359 130.273 131.456 129.7C131.642 128.532 131.976 127.319 132.311 126.039C133.891 120.489 136.616 115.33 140.31 110.897C141.112 109.933 141.961 109.009 142.855 108.129C143.272 107.72 143.666 107.303 144.075 106.946L145.266 105.927C145.948 105.341 146.661 104.792 147.401 104.282C147.721 104.052 148.019 103.828 148.302 103.642L149.098 103.166C150.102 102.623 150.623 102.348 150.675 102.422Z" fill="white"/>
<path d="M118.651 244.378C117.65 243.811 116.848 242.95 116.351 241.912C115.855 240.874 115.689 239.709 115.875 238.573C116.062 237.438 116.592 236.387 117.394 235.562C118.197 234.738 119.233 234.179 120.363 233.961C122.401 233.559 124.954 234.14 126.233 232.473C127.402 230.985 126.524 229.021 127.037 226.639C127.551 224.258 129.597 223.135 131.851 223.165C132.982 223.23 134.077 223.581 135.034 224.185C135.992 224.789 136.781 225.626 137.328 226.617C138.535 228.822 139.08 231.328 138.898 233.835C138.295 238.976 135.549 241.61 132.134 243.791C128.719 245.971 122.253 246.469 118.651 244.334" fill="#D6BD6D"/>
<g opacity="0.8">
<path d="M118.651 244.378C117.65 243.811 116.848 242.95 116.351 241.912C115.855 240.874 115.689 239.709 115.875 238.573C116.062 237.438 116.592 236.387 117.394 235.562C118.197 234.738 119.233 234.179 120.363 233.961C122.401 233.559 124.954 234.14 126.233 232.473C127.402 230.985 126.524 229.021 127.037 226.639C127.551 224.258 129.597 223.135 131.851 223.165C132.982 223.23 134.077 223.581 135.034 224.185C135.992 224.789 136.781 225.626 137.328 226.617C138.535 228.822 139.08 231.328 138.898 233.835C138.295 238.976 135.549 241.61 132.134 243.791C128.719 245.971 122.253 246.469 118.651 244.334" fill="white"/>
</g>
<path d="M202.13 203.163C202.959 201.577 204.254 200.282 205.839 199.452C207.425 198.622 209.227 198.297 211.003 198.519C212.779 198.742 214.444 199.502 215.776 200.698C217.108 201.894 218.043 203.468 218.455 205.21C219.199 208.372 218.455 212.375 221.082 214.287C223.47 216.021 226.491 214.525 230.241 215.18C233.991 215.835 235.867 218.96 235.948 222.487C236.03 226.014 233.872 229.362 230.889 231.237C227.523 233.252 223.648 234.254 219.727 234.125C211.669 233.492 207.391 229.362 203.782 224.169C200.173 218.975 199.012 208.908 202.13 203.163Z" fill="#D6BD6D"/>
<g opacity="0.8">
<path d="M202.13 203.163C202.959 201.577 204.254 200.282 205.839 199.452C207.425 198.622 209.227 198.297 211.003 198.519C212.779 198.742 214.444 199.502 215.776 200.698C217.108 201.894 218.043 203.468 218.455 205.21C219.199 208.372 218.455 212.375 221.082 214.287C223.47 216.021 226.491 214.525 230.241 215.18C233.991 215.835 235.867 218.96 235.948 222.487C236.03 226.014 233.872 229.362 230.889 231.237C227.523 233.252 223.648 234.254 219.727 234.125C211.669 233.492 207.391 229.362 203.782 224.169C200.173 218.975 199.012 208.908 202.13 203.163Z" fill="white"/>
</g>
<path d="M141.999 192.613C141.102 193.074 140.349 193.773 139.824 194.635C139.299 195.496 139.022 196.485 139.022 197.494C139.06 198.614 139.458 199.693 140.157 200.569C140.856 201.445 141.82 202.072 142.904 202.357C143.988 202.642 145.135 202.57 146.175 202.151C147.215 201.732 148.092 200.989 148.675 200.032C149.259 199.074 149.518 197.954 149.414 196.838C149.311 195.722 148.85 194.669 148.1 193.836C147.35 193.002 146.351 192.433 145.252 192.213C144.153 191.993 143.012 192.133 141.999 192.613Z" fill="#D6BD6D"/>
<g opacity="0.8">
<path d="M142 192.613C141.103 193.074 140.35 193.773 139.825 194.635C139.3 195.496 139.023 196.485 139.023 197.494C139.061 198.614 139.459 199.693 140.158 200.569C140.857 201.445 141.821 202.072 142.905 202.357C143.989 202.642 145.136 202.57 146.176 202.151C147.216 201.732 148.093 200.989 148.676 200.032C149.26 199.074 149.519 197.954 149.415 196.838C149.312 195.722 148.851 194.669 148.101 193.836C147.351 193.002 146.352 192.433 145.253 192.213C144.154 191.993 143.013 192.133 142 192.613Z" fill="white"/>
</g>
<path d="M221.111 255.011C220.664 255.243 220.289 255.594 220.027 256.024C219.764 256.454 219.625 256.948 219.623 257.452C219.641 258.014 219.84 258.556 220.19 258.996C220.54 259.436 221.023 259.751 221.567 259.895C222.111 260.038 222.687 260.002 223.209 259.792C223.73 259.582 224.171 259.21 224.463 258.729C224.756 258.249 224.886 257.687 224.834 257.127C224.782 256.567 224.55 256.038 224.173 255.621C223.797 255.203 223.295 254.918 222.743 254.808C222.192 254.698 221.619 254.77 221.111 255.011Z" fill="#D6BD6D"/>
<g opacity="0.8">
<path d="M221.111 255.011C220.664 255.243 220.289 255.594 220.027 256.024C219.764 256.454 219.625 256.948 219.623 257.452C219.641 258.014 219.84 258.556 220.19 258.996C220.54 259.436 221.023 259.751 221.567 259.895C222.111 260.038 222.687 260.002 223.209 259.792C223.73 259.582 224.171 259.21 224.463 258.729C224.756 258.249 224.886 257.687 224.834 257.127C224.782 256.567 224.55 256.038 224.173 255.621C223.797 255.203 223.295 254.918 222.743 254.808C222.192 254.698 221.619 254.77 221.111 255.011Z" fill="white"/>
</g>
<path d="M200.387 234.646H154.135C146.023 234.646 139.447 241.223 139.447 249.335V251.396C139.447 259.508 146.023 266.084 154.135 266.084H200.387C208.5 266.084 215.076 259.508 215.076 251.396V249.335C215.076 241.223 208.5 234.646 200.387 234.646Z" fill="#D6BD6D"/>
<path d="M162.062 252.443L162.575 251.305C163.207 251.744 163.956 251.982 164.725 251.99C165.618 251.99 165.983 251.692 165.983 251.29C165.983 250.07 162.188 250.903 162.188 248.485C162.188 247.376 163.088 246.454 164.941 246.454C165.723 246.442 166.494 246.64 167.173 247.027L166.712 248.172C166.162 247.852 165.54 247.678 164.904 247.666C164.004 247.666 163.661 248.001 163.661 248.411C163.661 249.609 167.456 248.783 167.456 251.179C167.456 252.265 166.548 253.202 164.688 253.202C163.756 253.219 162.841 252.954 162.062 252.443Z" fill="white"/>
<path d="M169.776 247.794H167.686V246.566H173.37V247.794H171.287V253.092H169.799L169.776 247.794Z" fill="white"/>
<path d="M178.147 251.664H175.119L174.546 253.063H172.998L175.9 246.537H177.388L180.305 253.063H178.72L178.147 251.664ZM177.671 250.518L176.637 248.018L175.602 250.518H177.671Z" fill="white"/>
<path d="M185.149 253.092L183.884 251.269H182.5V253.092H181.012V246.566H183.839C185.58 246.566 186.667 247.467 186.667 248.933C186.684 249.372 186.565 249.807 186.325 250.176C186.085 250.545 185.736 250.831 185.327 250.994L186.816 253.092H185.149ZM183.728 247.794H182.5V250.071H183.728C184.65 250.071 185.119 249.639 185.119 248.933C185.119 248.226 184.65 247.794 183.728 247.794Z" fill="white"/>
<path d="M189.094 247.794H187.011V246.566H192.696V247.794H190.605V253.092H189.116L189.094 247.794Z" fill="white"/>
<path d="M291.611 325.142L300.406 328.23L300.31 336.682C296.098 337.873 295.51 340.001 295.51 340.001L304.313 339.8L311.969 324.227L305.913 320.268L294.588 315.312" fill="#D6BD6D"/>
<g opacity="0.6">
<path d="M311.971 324.226L304.314 339.799L295.512 340L296.472 338.653L303.622 338.095L310.684 323.385L311.971 324.226Z" fill="white"/>
</g>
<path d="M300.28 332.812C300.347 332.902 300.846 332.597 301.53 332.604C302.215 332.611 302.713 332.879 302.78 332.79C302.847 332.701 302.356 332.202 301.53 332.217C300.704 332.232 300.198 332.768 300.28 332.812Z" fill="#263238"/>
<path d="M300.406 330.713C300.496 330.773 300.875 330.245 301.575 330.088C302.274 329.932 302.84 330.245 302.892 330.155C302.944 330.066 302.817 329.969 302.572 329.835C302.234 329.675 301.853 329.632 301.489 329.715C301.124 329.797 300.798 329.999 300.563 330.289C300.362 330.535 300.332 330.684 300.406 330.713Z" fill="#263238"/>
<path d="M300.258 328.02C300.355 328.064 300.645 327.551 301.255 327.328C301.865 327.104 302.416 327.29 302.461 327.186C302.505 327.082 302.364 327.022 302.118 326.941C301.791 326.829 301.436 326.835 301.113 326.958C300.79 327.08 300.519 327.31 300.348 327.61C300.221 327.834 300.214 328.005 300.258 328.02Z" fill="#263238"/>
<path d="M299.611 328.013C299.723 328.013 299.656 327.433 299.916 326.838C300.177 326.242 300.608 325.9 300.556 325.803C300.504 325.707 299.872 325.952 299.559 326.689C299.247 327.425 299.515 328.065 299.611 328.013Z" fill="#263238"/>
<path d="M298.569 327.025C298.699 326.643 298.769 326.244 298.777 325.842C298.814 325.417 298.852 324.993 298.896 324.554C298.934 324.283 298.934 324.007 298.896 323.736C298.851 323.556 298.739 323.399 298.584 323.297C298.494 323.238 298.389 323.207 298.282 323.207C298.175 323.207 298.071 323.238 297.981 323.297C297.743 323.504 297.57 323.775 297.482 324.078C297.393 324.335 297.34 324.603 297.326 324.874C297.3 325.33 297.379 325.786 297.557 326.206C297.869 326.95 298.301 327.181 298.301 327.151C298.107 326.814 297.933 326.467 297.78 326.109C297.656 325.721 297.61 325.311 297.646 324.904C297.672 324.668 297.727 324.435 297.81 324.212C297.876 323.986 297.999 323.781 298.167 323.617C298.194 323.597 298.227 323.586 298.26 323.586C298.294 323.586 298.326 323.597 298.353 323.617C298.426 323.663 298.479 323.735 298.502 323.818C298.528 324.05 298.528 324.285 298.502 324.517C298.502 324.956 298.502 325.388 298.465 325.812C298.434 326.219 298.469 326.629 298.569 327.025Z" fill="#263238"/>
<path d="M298.428 327.412C298.465 327.412 298.204 327.002 297.527 326.779C297.07 326.641 296.58 326.653 296.13 326.814C295.68 326.974 295.293 327.275 295.027 327.672C295.008 327.728 295.001 327.788 295.007 327.847C295.014 327.907 295.033 327.964 295.064 328.014C295.12 328.099 295.2 328.165 295.295 328.2C295.429 328.249 295.569 328.276 295.712 328.282C295.959 328.307 296.208 328.307 296.456 328.282C296.856 328.246 297.248 328.146 297.617 327.985C298.249 327.709 298.539 327.389 298.509 327.36C298.48 327.33 298.137 327.538 297.527 327.732C297.171 327.846 296.8 327.911 296.426 327.925C296.211 327.944 295.994 327.944 295.779 327.925C295.677 327.918 295.577 327.898 295.481 327.866C295.407 327.821 295.429 327.828 295.429 327.806C295.47 327.725 295.528 327.654 295.6 327.598C295.68 327.52 295.767 327.45 295.861 327.389C296.033 327.268 296.224 327.175 296.426 327.114C296.771 327.009 297.137 326.991 297.49 327.062C297.811 327.156 298.124 327.273 298.428 327.412Z" fill="#263238"/>
<g opacity="0.6">
<path d="M304.945 324.121C304.948 324.258 304.977 324.393 305.032 324.518C305.087 324.643 305.167 324.756 305.265 324.851C305.364 324.946 305.481 325.02 305.608 325.07C305.736 325.119 305.872 325.143 306.009 325.14C306.145 325.137 306.28 325.108 306.406 325.052C306.531 324.997 306.644 324.918 306.739 324.819C306.833 324.721 306.908 324.604 306.957 324.477C307.007 324.349 307.031 324.213 307.028 324.076C307.025 323.939 306.995 323.805 306.94 323.679C306.885 323.554 306.806 323.441 306.707 323.346C306.608 323.252 306.492 323.177 306.364 323.128C306.237 323.078 306.101 323.054 305.964 323.057C305.827 323.06 305.692 323.09 305.567 323.145C305.442 323.2 305.329 323.279 305.234 323.378C305.139 323.477 305.065 323.593 305.015 323.721C304.966 323.848 304.942 323.984 304.945 324.121Z" fill="white"/>
</g>
<path d="M246.492 321.607L246.611 333.126C246.611 333.126 234.936 337.121 234.75 339.25L257.072 339.823L257.623 321.86L246.492 321.607Z" fill="#D6BD6D"/>
<g opacity="0.6">
<path d="M253.53 332.336C253.743 332.408 253.922 332.555 254.033 332.75C254.144 332.945 254.18 333.173 254.133 333.393C254.069 333.607 253.926 333.79 253.732 333.903C253.539 334.016 253.31 334.052 253.091 334.003C252.866 333.926 252.676 333.77 252.558 333.563C252.441 333.356 252.402 333.112 252.452 332.879C252.541 332.66 252.712 332.485 252.928 332.389C253.145 332.293 253.39 332.285 253.612 332.366" fill="white"/>
</g>
<g opacity="0.6">
<path d="M257.102 339.821V338.006L235.68 338.14C235.68 338.14 234.668 338.542 234.764 339.248L257.102 339.821Z" fill="white"/>
</g>
<path d="M246.245 333.007C246.245 333.112 246.796 333.179 247.324 333.543C247.853 333.908 248.12 334.377 248.225 334.332C248.329 334.287 248.18 333.655 247.533 333.231C246.885 332.807 246.23 332.903 246.245 333.007Z" fill="#263238"/>
<path d="M243.856 333.914C243.856 334.018 244.295 334.219 244.653 334.658C245.01 335.097 245.106 335.618 245.218 335.618C245.33 335.618 245.412 335 244.958 334.42C244.504 333.84 243.856 333.81 243.856 333.914Z" fill="#263238"/>
<path d="M242.473 336.683C242.577 336.683 242.741 336.169 242.473 335.567C242.205 334.964 241.729 334.711 241.654 334.823C241.58 334.934 241.915 335.239 242.13 335.738C242.346 336.236 242.368 336.675 242.473 336.683Z" fill="#263238"/>
<path d="M246.513 330.372C246.558 330.477 247.057 330.372 247.674 330.372C248.292 330.372 248.768 330.64 248.827 330.544C248.887 330.447 248.433 330.053 247.704 329.993C246.975 329.933 246.461 330.291 246.513 330.372Z" fill="#263238"/>
<g opacity="0.3">
<path d="M246.513 323.885L246.535 325.938L257.518 326.124L257.577 324.272L246.513 323.885Z" fill="black"/>
</g>
<path d="M246.528 328.05C246.896 328.152 247.284 328.152 247.652 328.05C248.056 327.989 248.451 327.879 248.828 327.722C249.053 327.628 249.272 327.519 249.482 327.395C249.61 327.331 249.726 327.246 249.825 327.142C249.899 327.066 249.945 326.968 249.958 326.863C249.97 326.758 249.946 326.652 249.892 326.562C249.838 326.485 249.769 326.422 249.687 326.377C249.606 326.332 249.516 326.306 249.423 326.301C249.28 326.298 249.138 326.313 248.999 326.346C248.759 326.398 248.525 326.472 248.299 326.569C247.918 326.729 247.564 326.947 247.25 327.216C246.714 327.685 246.506 328.087 246.566 328.109C246.625 328.132 246.878 327.812 247.414 327.432C247.726 327.209 248.066 327.029 248.426 326.896C248.636 326.817 248.853 326.755 249.073 326.71C249.311 326.658 249.512 326.658 249.572 326.77C249.631 326.881 249.572 326.822 249.572 326.889C249.499 326.965 249.413 327.028 249.319 327.075C249.118 327.201 248.917 327.306 248.723 327.402C248.37 327.561 248.004 327.691 247.63 327.789C247.256 327.846 246.888 327.933 246.528 328.05Z" fill="#263238"/>
<path d="M246.669 328.214C246.885 327.896 246.997 327.519 246.989 327.135C247.022 326.722 246.982 326.306 246.87 325.907C246.807 325.67 246.717 325.44 246.602 325.223C246.546 325.073 246.452 324.94 246.33 324.837C246.207 324.734 246.06 324.664 245.903 324.635C245.802 324.634 245.704 324.663 245.62 324.717C245.535 324.771 245.468 324.849 245.427 324.94C245.367 325.068 245.325 325.203 245.3 325.342C245.265 325.588 245.265 325.839 245.3 326.086C245.347 326.507 245.501 326.909 245.747 327.254C246.171 327.842 246.617 327.998 246.632 327.946C246.647 327.894 246.29 327.671 245.97 327.105C245.787 326.78 245.676 326.42 245.642 326.049C245.625 325.832 245.638 325.614 245.68 325.401C245.724 325.163 245.813 324.977 245.903 324.999C245.992 325.022 246.2 325.185 246.29 325.379C246.392 325.575 246.479 325.779 246.55 325.989C246.663 326.353 246.726 326.731 246.736 327.113C246.736 327.79 246.61 328.191 246.669 328.214Z" fill="#263238"/>
<path d="M298.442 315.736L272.704 306.167L299.759 302.365L301.121 289.188L250.531 293.6L243.388 303.891L245.263 316.793L294.558 329.323L298.442 315.736Z" fill="#263238"/>
<path d="M243.856 324.955L241.394 277.855C241.461 275.599 242.103 273.398 243.259 271.46C244.415 269.523 246.048 267.912 248.001 266.783C249.624 265.842 251.429 265.256 253.295 265.065C255.161 264.874 257.047 265.081 258.827 265.674L291.649 276.619L309.663 281.255C309.663 281.255 312.736 288.822 310.928 294.701C309.164 300.46 302.855 304.292 297.304 302.647C290.406 300.601 258.753 287.022 258.753 287.022V325.327L243.856 324.955Z" fill="#263238"/>
<path d="M296.842 302.767L296.649 302.707L296.083 302.492L293.933 301.628L286.038 298.407L260.032 287.677L258.708 287.126L258.924 286.985C258.924 297.648 258.887 307.224 258.872 314.166C258.872 317.611 258.872 320.402 258.827 322.351C258.827 323.296 258.827 324.04 258.827 324.583C258.827 324.821 258.827 325.015 258.827 325.156C258.838 325.223 258.838 325.291 258.827 325.357C258.821 325.29 258.821 325.223 258.827 325.156V324.583C258.827 324.055 258.827 323.311 258.827 322.351C258.827 320.402 258.827 317.611 258.782 314.166C258.782 307.224 258.782 297.648 258.738 286.985V286.762L258.946 286.844L260.271 287.394L286.239 298.206L293.977 301.517L296.106 302.432L296.656 302.678L296.842 302.767Z" fill="#455A64"/>
<path d="M266.529 302.826C268.909 303.243 271.081 304.445 272.697 306.241C272.63 306.308 271.462 305.222 269.721 304.277C267.98 303.332 266.499 302.915 266.529 302.826Z" fill="#455A64"/>
<path d="M255.911 280.615C256.618 281.603 257.203 282.672 257.653 283.8C258.19 284.887 258.599 286.033 258.873 287.215C258.791 287.215 258.188 285.727 257.385 283.926C256.581 282.126 255.837 280.682 255.911 280.615Z" fill="#455A64"/>
<path d="M255.985 259.864L250.181 258.777L244.087 264.998L245.21 268.964L252.316 266.345L255.985 259.864Z" fill="#FFBE9D"/>
<path d="M202.359 245.666L208.959 244.178L219.585 245.837L219.176 252.616C219.176 252.616 215.879 253.092 214.711 252.705C214.007 252.474 213.251 252.459 212.538 252.66C212.538 252.66 213.186 253.992 212.07 254.208C210.953 254.424 209.13 254.892 208.788 253.315C208.508 253.332 208.23 253.251 208.003 253.085C207.776 252.919 207.614 252.68 207.546 252.407C207.546 252.407 206.682 252.72 206.296 251.209C205.909 249.699 206.132 247.429 209.116 246.708C209.272 246.67 209.346 246.313 209.049 246.328L204.331 247.214C204.331 247.214 201.161 247.355 202.359 245.666Z" fill="#FFBE9D"/>
<path d="M207.977 250.391C208.342 250.278 208.72 250.211 209.101 250.19C209.515 250.127 209.932 250.09 210.351 250.078C210.493 250.081 210.632 250.113 210.76 250.173C210.889 250.234 211.003 250.32 211.095 250.428C211.187 250.56 211.24 250.715 211.248 250.875C211.256 251.036 211.218 251.195 211.14 251.336C210.984 251.559 210.784 251.747 210.553 251.889C210.321 252.032 210.062 252.124 209.793 252.162C209.392 252.275 208.984 252.365 208.573 252.429C208.194 252.504 207.805 252.504 207.427 252.429C207.791 252.33 208.162 252.253 208.535 252.199C208.878 252.124 209.28 252.02 209.719 251.879C209.942 251.823 210.161 251.751 210.373 251.663C210.587 251.561 210.765 251.398 210.887 251.194C210.942 251.103 210.971 250.999 210.971 250.893C210.971 250.787 210.942 250.682 210.887 250.592C210.747 250.436 210.552 250.343 210.344 250.331C209.919 250.331 209.48 250.376 209.131 250.383C208.748 250.434 208.361 250.437 207.977 250.391Z" fill="#EB996E"/>
<path d="M209.107 248.932C209.107 249.014 208.779 249.185 208.526 249.58C208.273 249.974 208.236 250.361 208.154 250.368C208.072 250.376 207.968 249.892 208.288 249.416C208.608 248.94 209.107 248.858 209.107 248.932Z" fill="#EB996E"/>
<path d="M210.924 251.352C210.924 251.352 210.991 251.352 211.096 251.352C211.2 251.352 211.319 251.567 211.408 251.709C211.478 251.818 211.525 251.94 211.544 252.069C211.563 252.197 211.555 252.328 211.52 252.453C211.467 252.601 211.376 252.733 211.256 252.835C211.135 252.937 210.99 253.005 210.835 253.033C210.361 253.181 209.876 253.29 209.384 253.361C209.005 253.398 208.767 253.361 208.767 253.323C208.767 253.286 208.997 253.249 209.354 253.16C209.712 253.07 210.203 252.914 210.753 252.765C210.866 252.748 210.972 252.702 211.063 252.633C211.154 252.565 211.227 252.475 211.274 252.371C211.347 252.192 211.347 251.992 211.274 251.813C211.185 251.627 211.155 251.508 211.081 251.448C211.006 251.389 210.91 251.366 210.924 251.352Z" fill="#EB996E"/>
<path d="M211.363 252.504C211.363 252.504 211.438 252.37 211.646 252.341C211.908 252.323 212.169 252.391 212.39 252.534C212.503 252.613 212.596 252.718 212.662 252.839C212.728 252.96 212.765 253.095 212.77 253.233C212.77 253.427 212.77 253.546 212.703 253.546C212.636 253.546 212.628 253.434 212.569 253.271C212.517 253.075 212.402 252.903 212.241 252.78C212.063 252.663 211.863 252.582 211.653 252.541C211.49 252.512 211.386 252.541 211.363 252.504Z" fill="#EB996E"/>
<path d="M214.65 247.236L211.674 248.419L208.884 250.399C208.884 250.399 208.884 251.083 210.469 250.83C211.466 250.663 212.418 250.293 213.266 249.744C213.266 249.744 215.342 251.053 217.18 250.748" fill="#FFBE9D"/>
<path d="M217.151 250.748C217.151 250.748 217.054 250.786 216.861 250.823C216.579 250.854 216.294 250.854 216.012 250.823C215.006 250.699 214.038 250.364 213.17 249.841H213.304C212.264 250.543 211.052 250.949 209.799 251.016C209.587 251.023 209.376 250.993 209.174 250.927C209.054 250.891 208.947 250.822 208.865 250.727C208.783 250.632 208.73 250.515 208.713 250.391V250.324L208.772 250.28L211.6 248.315C212.515 247.966 213.267 247.683 213.795 247.497C214.063 247.382 214.342 247.295 214.628 247.236C214.378 247.39 214.114 247.519 213.84 247.623C213.326 247.846 212.59 248.159 211.682 248.531L208.884 250.533L208.944 250.414C208.944 250.503 209.07 250.629 209.219 250.681C209.389 250.738 209.568 250.763 209.747 250.756C210.945 250.688 212.104 250.309 213.11 249.655L213.185 249.61H213.252C214.084 250.13 215.009 250.486 215.975 250.659C216.364 250.717 216.757 250.747 217.151 250.748Z" fill="#EB996E"/>
<path d="M210.321 247.088C210.321 247.169 209.971 247.162 209.629 246.954C209.286 246.745 209.115 246.44 209.175 246.396C209.234 246.351 209.472 246.53 209.77 246.708C210.068 246.887 210.373 247.013 210.321 247.088Z" fill="#EB996E"/>
<path d="M219.012 254.408L244.206 258.069C246.709 258.86 249.422 258.633 251.759 257.437L274.2 245.926L267.503 231.111C266.637 231.408 265.792 231.763 264.974 232.175L246.513 245.48L219.726 244.542L219.012 254.408Z" fill="#D6BD6D"/>
<path d="M309.179 281.144L307.572 278.324L290.398 274.023L292.422 277.521L309.179 281.144Z" fill="#FFBE9D"/>
<path d="M267.481 231.113C267.481 231.708 264.959 250.355 264.959 254.18C264.959 258.004 272.251 262.119 272.251 262.119L280.235 279.077H308.681L298.956 260.817L294.559 246.188C292.892 240.652 293.07 237.788 288.941 233.732L280.986 228.375L267.481 231.113Z" fill="#D6BD6D"/>
<path d="M275.741 245.829L280.518 265.874L256.425 259.103L252.317 266.365L283.666 280.637C285.54 281.489 287.653 281.658 289.639 281.115C291.625 280.571 293.358 279.349 294.537 277.661C295.265 276.619 295.76 275.432 295.987 274.181C296.215 272.93 296.169 271.645 295.854 270.413L288.837 242.994C288.61 242.1 288.2 241.262 287.634 240.534C287.068 239.806 286.357 239.202 285.547 238.761C284.736 238.32 283.843 238.052 282.924 237.972C282.005 237.893 281.08 238.004 280.206 238.299C278.682 238.809 277.392 239.851 276.573 241.233C275.753 242.616 275.458 244.247 275.741 245.829Z" fill="#D6BD6D"/>
<path d="M272.697 263.049C272.489 262.667 272.239 262.311 271.953 261.985C271.774 261.895 271.521 261.761 271.209 261.575C270.287 261.056 269.405 260.472 268.567 259.827C267.283 258.891 266.221 257.685 265.457 256.292C264.713 254.626 264.713 252.572 265.018 250.563C265.323 248.554 265.762 246.649 265.97 244.901C266.179 243.152 266.424 241.582 266.521 240.257C266.618 238.933 266.64 237.854 266.64 237.11C266.64 236.366 266.64 235.949 266.64 235.949C266.67 236.046 266.688 236.146 266.692 236.247C266.692 236.44 266.737 236.73 266.759 237.103C266.814 238.158 266.814 239.216 266.759 240.272C266.692 241.604 266.528 243.197 266.275 244.945C266.022 246.694 265.635 248.599 265.345 250.608C265.055 252.617 265.018 254.588 265.732 256.173C266.466 257.532 267.48 258.719 268.708 259.656C269.53 260.311 270.387 260.919 271.276 261.479C271.837 261.916 272.318 262.447 272.697 263.049Z" fill="#263238"/>
<path d="M282.28 229.699C282.156 229.881 282.008 230.047 281.841 230.19C281.551 230.488 281.097 230.934 280.569 231.418C279.475 232.437 277.92 233.807 276.104 235.235C274.289 236.664 272.652 237.884 271.417 238.732C270.799 239.156 270.293 239.476 269.928 239.707C269.751 239.836 269.559 239.944 269.355 240.027C269.51 239.872 269.679 239.732 269.861 239.61L271.283 238.554C272.481 237.668 274.132 236.426 275.911 234.997C277.689 233.568 279.259 232.237 280.375 231.277L281.715 230.116C281.886 229.955 282.076 229.815 282.28 229.699Z" fill="#263238"/>
<path d="M275.742 245.83C275.794 245.955 275.833 246.084 275.861 246.217C275.935 246.495 276.032 246.867 276.151 247.333C276.404 248.338 276.753 249.751 277.192 251.515C278.063 255.101 279.276 260.102 280.66 265.838L280.719 266.084L280.481 266.017L274.365 264.313L256.425 259.216L256.552 259.164L253.508 264.447L252.66 265.876L252.437 266.24C252.385 266.329 252.355 266.367 252.348 266.367C252.362 266.317 252.382 266.27 252.407 266.225L252.608 265.846L253.397 264.358L256.373 259.023L256.418 258.948H256.5L274.462 263.963L280.608 265.704L280.422 265.876C279.075 260.131 277.899 255.124 277.051 251.53C276.649 249.759 276.307 248.33 276.099 247.326C275.995 246.849 275.913 246.477 275.853 246.195C275.807 246.076 275.769 245.954 275.742 245.83Z" fill="#263238"/>
<path d="M288.94 244.58C288.995 244.691 289.035 244.809 289.059 244.93C289.134 245.19 289.223 245.518 289.342 245.927L290.31 249.647C291.106 252.802 292.199 257.088 293.397 261.858C293.985 264.246 294.566 266.516 295.057 268.599C295.545 270.442 295.699 272.357 295.511 274.254C295.359 275.537 294.899 276.765 294.171 277.833C293.91 278.226 293.583 278.571 293.204 278.852C293.515 278.51 293.804 278.147 294.067 277.766C294.75 276.698 295.173 275.485 295.302 274.224C295.453 272.353 295.276 270.47 294.781 268.659C294.261 266.59 293.695 264.321 293.1 261.962L290.124 249.729L289.246 246.009L289.022 244.997C288.983 244.86 288.956 244.721 288.94 244.58Z" fill="#263238"/>
<g opacity="0.3">
<path d="M293.316 279.062C296.843 279.382 298.89 277.373 299.269 274.597C299.352 273.068 299.082 271.541 298.48 270.133C296.315 263.793 294.127 257.402 290.697 251.643C291.992 257.402 293.674 262.93 294.946 268.689C295.357 270.29 295.54 271.941 295.489 273.593C295.409 275.608 294.642 277.535 293.316 279.054" fill="black"/>
</g>
<path d="M264.393 250.175C263.851 249.716 263.371 249.188 262.964 248.605C261.926 247.249 261.04 245.781 260.323 244.23C259.604 242.676 259.063 241.046 258.708 239.371C258.53 238.684 258.44 237.976 258.44 237.266C258.656 237.935 258.835 238.616 258.976 239.304C259.403 240.938 259.97 242.531 260.673 244.067C261.38 245.597 262.221 247.061 263.188 248.442C263.947 249.536 264.438 250.175 264.393 250.175Z" fill="#FAFAFA"/>
<path d="M257.487 254.291C257.055 253.793 256.676 253.252 256.356 252.676C255.701 251.649 254.868 250.206 253.96 248.576C253.052 246.947 252.323 245.444 251.817 244.343C251.506 243.763 251.257 243.152 251.073 242.52C251.449 243.056 251.773 243.626 252.041 244.223L254.273 248.39C255.128 249.953 255.91 251.367 256.557 252.535C256.918 253.092 257.229 253.679 257.487 254.291Z" fill="#FAFAFA"/>
<path d="M247.987 257.996C247.475 256.038 247.088 254.05 246.826 252.043C246.439 250.055 246.178 248.044 246.045 246.023C246.557 247.981 246.944 249.969 247.206 251.976C247.597 253.964 247.858 255.974 247.987 257.996Z" fill="#FAFAFA"/>
<path d="M239.534 257.423C239.399 256.868 239.334 256.298 239.34 255.726C239.274 254.67 239.236 253.211 239.274 251.597C239.311 249.982 239.422 248.531 239.534 247.482C239.556 246.91 239.648 246.342 239.809 245.793C239.871 246.359 239.871 246.931 239.809 247.497C239.765 248.554 239.705 250.004 239.66 251.604C239.616 253.204 239.616 254.662 239.616 255.719C239.653 256.288 239.626 256.86 239.534 257.423Z" fill="#FAFAFA"/>
<path d="M231.073 245.115C231.205 245.631 231.275 246.16 231.281 246.693C231.356 247.675 231.4 249.037 231.378 250.54C231.356 252.043 231.252 253.404 231.14 254.379C231.122 254.914 231.031 255.445 230.872 255.956C230.76 255.956 230.939 253.523 230.984 250.532C231.028 247.541 230.954 245.123 231.073 245.115Z" fill="#FAFAFA"/>
<path d="M224.123 246.01C224.177 247.526 224.105 249.044 223.907 250.549C223.839 252.064 223.637 253.57 223.305 255.05C223.319 252.019 223.593 248.994 224.123 246.01Z" fill="#FAFAFA"/>
<path d="M266.009 239.126C265.897 239.126 265.451 237.921 264.692 236.507C263.933 235.094 263.204 234.022 263.263 233.955C264.688 235.356 265.647 237.162 266.009 239.126Z" fill="#FAFAFA"/>
<path d="M279.104 259.372C278.917 259.431 278.72 259.453 278.524 259.439C277.99 259.461 277.456 259.448 276.924 259.402C275.164 259.266 273.433 258.881 271.782 258.256C270.127 257.641 268.567 256.797 267.147 255.748C266.717 255.431 266.307 255.088 265.919 254.721C265.644 254.461 265.502 254.312 265.525 254.29C265.547 254.267 266.202 254.781 267.303 255.525C270.198 257.473 273.513 258.709 276.976 259.134C278.271 259.297 279.104 259.305 279.104 259.372Z" fill="#FAFAFA"/>
<path d="M276.387 249.87C275.866 249.893 275.344 249.835 274.84 249.699C273.605 249.466 272.389 249.142 271.201 248.732C270.011 248.326 268.854 247.828 267.741 247.243C267.26 247.035 266.812 246.76 266.409 246.425C266.469 246.321 268.567 247.415 271.328 248.359C274.088 249.304 276.41 249.758 276.387 249.87Z" fill="#FAFAFA"/>
<path d="M274.812 243.039C273.467 243.124 272.12 242.908 270.869 242.407C269.618 241.906 268.494 241.134 267.579 240.145C269.708 241.702 272.196 242.697 274.812 243.039Z" fill="#FAFAFA"/>
<path d="M285.949 238.173C285.912 238.233 285.332 237.838 284.275 237.541C282.899 237.159 281.437 237.213 280.093 237.697C278.758 238.208 277.617 239.127 276.834 240.324C276.224 241.239 276.045 241.916 275.979 241.894C276.043 241.279 276.255 240.69 276.596 240.175C277.353 238.867 278.541 237.862 279.957 237.334C281.373 236.806 282.928 236.787 284.357 237.28C284.951 237.447 285.497 237.754 285.949 238.173Z" fill="#FAFAFA"/>
<path d="M287.267 247.311C286.888 247.627 286.461 247.878 286.002 248.056C283.853 248.988 281.529 249.45 279.186 249.41C278.702 249.439 278.216 249.383 277.75 249.246C277.75 249.127 279.982 249.246 282.587 248.718C285.191 248.189 287.215 247.2 287.267 247.311Z" fill="#FAFAFA"/>
<path d="M291.076 258.776C289.36 259.138 287.619 259.374 285.868 259.483C284.122 259.716 282.361 259.823 280.6 259.803C282.316 259.437 284.057 259.201 285.808 259.096C287.554 258.862 289.315 258.755 291.076 258.776Z" fill="#FAFAFA"/>
<path d="M294.455 274.663C294.251 274.656 294.05 274.616 293.86 274.544C293.331 274.398 292.812 274.221 292.304 274.015C290.621 273.338 289.013 272.488 287.505 271.478C286.006 270.471 284.56 269.385 283.175 268.226C282.574 267.783 282.016 267.285 281.508 266.738C282.138 267.119 282.736 267.552 283.294 268.033C284.402 268.859 285.928 270.012 287.676 271.173C289.168 272.165 290.736 273.038 292.364 273.785C293.636 274.328 294.455 274.603 294.455 274.663Z" fill="#FAFAFA"/>
<path d="M276.395 277.082C276.271 276.528 276.23 275.959 276.276 275.393C276.334 272.653 276.989 269.959 278.196 267.498C278.413 266.975 278.709 266.488 279.074 266.055C278.326 267.804 277.695 269.602 277.184 271.434C276.801 273.298 276.537 275.185 276.395 277.082Z" fill="#FAFAFA"/>
<path d="M267.325 272.222C267.036 269.1 267.991 265.991 269.981 263.568C269.283 264.923 268.676 266.322 268.166 267.758C267.782 269.224 267.501 270.716 267.325 272.222Z" fill="#FAFAFA"/>
<path d="M262.265 260.346C261.218 261.59 260.292 262.93 259.497 264.349C258.818 265.827 258.282 267.367 257.897 268.947C257.846 268.449 257.884 267.945 258.009 267.459C258.232 266.303 258.615 265.183 259.147 264.133C259.68 263.083 260.359 262.113 261.164 261.253C261.477 260.891 261.85 260.584 262.265 260.346Z" fill="#FAFAFA"/>
<path d="M295.69 249.951C295.133 250.647 294.404 251.186 293.576 251.515C292.747 251.844 291.847 251.951 290.965 251.827C290.965 251.707 292.126 251.678 293.428 251.149C294.73 250.621 295.608 249.87 295.69 249.951Z" fill="#FAFAFA"/>
<path d="M292.281 239.514C292.025 240.261 291.538 240.907 290.89 241.359C290.319 241.909 289.585 242.259 288.799 242.356C288.799 242.252 289.692 241.843 290.644 241.054C291.597 240.265 292.222 239.447 292.281 239.514Z" fill="#FAFAFA"/>
<path d="M280.13 232.562C280.79 232.953 281.31 233.542 281.618 234.244C282.039 234.889 282.254 235.647 282.236 236.417C282.124 236.417 281.856 235.487 281.276 234.43C280.695 233.374 280.056 232.637 280.13 232.562Z" fill="#FAFAFA"/>
<path d="M298.175 259.782C297.526 260.362 296.731 260.754 295.875 260.913C295.053 261.19 294.169 261.234 293.323 261.039C293.323 260.928 294.454 260.883 295.779 260.533C297.103 260.184 298.13 259.685 298.175 259.782Z" fill="#FAFAFA"/>
<path d="M303.383 268.941C300.7 269.426 297.977 269.656 295.25 269.625C296.579 269.319 297.935 269.14 299.298 269.089C300.651 268.905 302.02 268.856 303.383 268.941Z" fill="#FAFAFA"/>
<path d="M307 276.308C303.007 276.467 299.008 276.368 295.027 276.011C299.02 275.852 303.019 275.951 307 276.308Z" fill="#FAFAFA"/>
<path d="M280.667 202.465C281.165 204.987 284.789 205.992 285.131 208.537C285.28 209.623 284.759 210.709 284.804 211.81C284.848 213.299 285.883 214.541 286.404 215.925C287.49 218.783 286.27 222.168 283.97 224.185C281.671 226.201 278.531 227.019 275.48 227.079" fill="#263238"/>
<path d="M260.145 205.07C260.465 206.417 259.758 207.771 259.014 208.94C258.269 210.108 257.429 211.328 257.444 212.705C257.444 215.16 260.167 217.013 260.063 219.461C260.003 220.77 259.125 221.953 259.14 223.271C259.203 223.904 259.402 224.516 259.721 225.067C260.041 225.618 260.474 226.093 260.993 226.463C261.96 227.281 262.898 226.991 263.791 227.899C264.82 228.912 266.049 229.7 267.399 230.213C270.249 231.232 273.077 228.65 274.29 228.077" fill="#263238"/>
<path d="M281.411 203.842C281.247 202.599 279.922 201.825 278.732 201.557C277.541 201.289 276.209 201.319 275.071 200.813C274.126 200.241 273.238 199.579 272.422 198.834C271.323 198.021 270.027 197.516 268.667 197.37C267.308 197.224 265.934 197.443 264.687 198.003C263.44 198.564 262.365 199.446 261.572 200.56C260.779 201.674 260.297 202.978 260.175 204.34C260.011 206.171 260.643 208.202 262.213 209.154C264.036 210.256 266.38 209.578 268.374 208.827C270.368 208.075 272.638 207.294 274.55 208.232C275.644 208.915 276.58 209.823 277.296 210.895C278.099 211.893 279.074 212.89 280.339 213.128C281.604 213.366 283.122 212.384 282.973 211.104" fill="#263238"/>
<path d="M281.843 230.19L278.867 206.089C278.795 205.57 278.531 205.096 278.128 204.762C277.724 204.427 277.21 204.255 276.686 204.281L265.287 203.217C261.715 203.395 260.079 208.083 260.376 211.647C260.741 215.598 261.336 220.42 262.259 223.27C264.104 228.999 268.725 229.044 268.725 229.044C268.725 229.044 269.558 237.526 269.9 239.61" fill="#FFBE9D"/>
<path d="M261.908 216.044C261.92 216.143 261.951 216.238 262.001 216.325C262.05 216.411 262.116 216.487 262.195 216.547C262.274 216.607 262.365 216.651 262.461 216.676C262.557 216.701 262.658 216.706 262.756 216.691C262.951 216.673 263.131 216.578 263.256 216.427C263.381 216.277 263.442 216.083 263.426 215.888C263.414 215.789 263.382 215.694 263.333 215.607C263.284 215.521 263.218 215.445 263.138 215.385C263.059 215.325 262.969 215.281 262.873 215.256C262.776 215.231 262.676 215.226 262.578 215.241C262.383 215.259 262.203 215.354 262.078 215.505C261.952 215.655 261.891 215.849 261.908 216.044Z" fill="#263238"/>
<path d="M261.714 214.556C261.826 214.646 262.332 214.132 263.143 214.006C263.954 213.879 264.631 214.199 264.683 214.08C264.735 213.961 264.594 213.872 264.311 213.723C263.921 213.532 263.482 213.467 263.054 213.537C262.631 213.601 262.24 213.799 261.938 214.102C261.714 214.333 261.64 214.519 261.714 214.556Z" fill="#263238"/>
<path d="M270.085 214.846C270.097 214.944 270.128 215.039 270.177 215.125C270.226 215.211 270.292 215.286 270.37 215.346C270.448 215.406 270.538 215.45 270.633 215.476C270.728 215.501 270.828 215.507 270.926 215.494C271.119 215.475 271.298 215.381 271.423 215.232C271.548 215.083 271.61 214.891 271.596 214.697C271.584 214.599 271.552 214.505 271.503 214.419C271.455 214.333 271.389 214.258 271.311 214.197C271.233 214.137 271.143 214.093 271.048 214.068C270.952 214.043 270.853 214.036 270.755 214.05C270.561 214.069 270.383 214.163 270.258 214.312C270.133 214.46 270.071 214.652 270.085 214.846Z" fill="#263238"/>
<path d="M269.692 213.469C269.803 213.55 270.309 213.037 271.12 212.918C271.931 212.799 272.608 213.104 272.66 212.992C272.712 212.881 272.571 212.777 272.281 212.628C271.893 212.439 271.456 212.377 271.031 212.449C270.61 212.514 270.22 212.71 269.915 213.007C269.699 213.238 269.639 213.431 269.692 213.469Z" fill="#263238"/>
<path d="M267.667 219.942C267.217 219.888 266.763 219.888 266.313 219.942C266.105 219.942 265.904 219.942 265.844 219.801C265.791 219.591 265.807 219.369 265.889 219.168C266 218.64 266.127 218.082 266.253 217.494C266.616 216.07 266.865 214.62 266.998 213.156C266.522 214.549 266.158 215.977 265.911 217.427C265.792 218.018 265.68 218.576 265.576 219.101C265.48 219.371 265.48 219.665 265.576 219.935C265.617 220.004 265.674 220.062 265.741 220.106C265.808 220.15 265.884 220.178 265.963 220.188C266.084 220.199 266.207 220.199 266.328 220.188C266.783 220.165 267.233 220.082 267.667 219.942Z" fill="#263238"/>
<path d="M268.694 229.044C271.449 228.715 274.05 227.593 276.18 225.814C275.555 227.238 274.531 228.45 273.231 229.303C271.932 230.156 270.413 230.614 268.858 230.621L268.694 229.044Z" fill="#EB996E"/>
<path d="M268.33 221.848C268.455 221.631 268.633 221.448 268.848 221.318C269.063 221.188 269.307 221.115 269.557 221.104C269.739 221.093 269.92 221.118 270.091 221.178C270.263 221.238 270.42 221.332 270.555 221.454C270.684 221.573 270.774 221.728 270.813 221.9C270.851 222.072 270.836 222.251 270.77 222.414C270.664 222.58 270.509 222.71 270.327 222.787C270.145 222.864 269.945 222.884 269.751 222.845C269.345 222.772 268.958 222.618 268.612 222.391C268.514 222.337 268.424 222.27 268.345 222.19C268.309 222.149 268.286 222.098 268.278 222.044C268.271 221.99 268.278 221.935 268.3 221.885" fill="#EB996E"/>
<path d="M270.16 220.136C270.026 220.136 270.16 221.028 269.505 221.765C268.85 222.502 267.898 222.561 267.905 222.68C267.913 222.799 268.143 222.822 268.545 222.77C269.065 222.687 269.54 222.424 269.885 222.026C270.215 221.65 270.391 221.164 270.376 220.664C270.353 220.322 270.219 220.121 270.16 220.136Z" fill="#263238"/>
<path d="M268.962 211.261C269.081 211.47 269.877 211.261 270.844 211.202C271.812 211.142 272.623 211.306 272.719 211.09C272.816 210.874 272.593 210.8 272.251 210.636C271.796 210.438 271.303 210.346 270.807 210.368C270.312 210.39 269.829 210.525 269.393 210.763C269.066 210.956 268.917 211.157 268.962 211.261Z" fill="#263238"/>
<path d="M261.624 212.167C261.796 212.323 262.324 212.048 262.994 211.936C263.663 211.824 264.258 211.862 264.355 211.653C264.452 211.445 264.281 211.378 264.005 211.244C263.641 211.081 263.235 211.037 262.845 211.118C262.45 211.183 262.086 211.371 261.803 211.653C261.595 211.884 261.55 212.085 261.624 212.167Z" fill="#263238"/>
<path d="M282.169 224.132C280.607 224.713 280.331 223.916 278.947 222.979C278.258 222.506 277.688 221.878 277.283 221.145C276.879 220.413 276.651 219.596 276.619 218.76C276.574 217.272 277.117 215.694 276.403 214.407C275.45 212.711 272.831 212.554 271.879 210.858C271.321 209.868 271.477 208.588 270.874 207.636C270.545 207.218 270.134 206.871 269.668 206.615C269.201 206.36 268.688 206.201 268.158 206.148C267.096 206.044 266.057 205.776 265.078 205.352C264.148 204.838 263.441 203.7 263.835 202.71C268.307 202.545 272.783 202.913 277.169 203.804C278.206 203.917 279.182 204.352 279.959 205.047C280.612 205.936 280.969 207.009 280.979 208.112C281.569 213.425 282.154 218.74 282.735 224.058" fill="#263238"/>
<path d="M283.97 211.558C283.912 210.567 284.177 209.585 284.727 208.758C285.277 207.932 286.081 207.307 287.018 206.979C287.954 206.65 288.972 206.635 289.918 206.936C290.864 207.238 291.685 207.839 292.259 208.649C292.748 209.45 293.057 210.349 293.163 211.282C293.27 212.215 293.172 213.16 292.877 214.051C292.289 216.201 290.726 218.322 288.509 218.567C286.433 218.798 284.483 217.25 283.576 215.36C282.668 213.471 282.571 211.313 282.489 209.222" fill="#263238"/>
<path d="M286.396 219.431C286.506 219.318 286.592 219.184 286.649 219.037C286.821 218.645 286.908 218.222 286.902 217.794C286.89 217.161 286.772 216.535 286.552 215.941C286.329 215.272 285.979 214.587 285.689 213.843C285.389 213.162 285.227 212.429 285.213 211.685C285.213 211.015 285.451 210.413 285.51 209.87C285.575 209.443 285.518 209.008 285.347 208.612C285.205 208.337 285.056 208.233 285.049 208.247C285.042 208.262 285.146 208.381 285.25 208.649C285.376 209.036 285.402 209.448 285.324 209.847C285.17 210.45 285.053 211.061 284.975 211.678C284.976 212.446 285.135 213.206 285.443 213.91C285.741 214.654 286.098 215.346 286.329 215.993C286.547 216.561 286.677 217.158 286.716 217.764C286.736 218.337 286.627 218.907 286.396 219.431Z" fill="#455A64"/>
<path d="M285.368 212.353C285.649 212.679 286.004 212.934 286.402 213.097C287.343 213.563 288.402 213.735 289.442 213.589C290.482 213.443 291.453 212.986 292.229 212.278C292.566 212.01 292.838 211.67 293.025 211.281C292.988 211.281 292.712 211.653 292.11 212.137C291.331 212.767 290.399 213.178 289.409 213.327C288.415 213.46 287.405 213.321 286.484 212.926C285.77 212.628 285.39 212.316 285.368 212.353Z" fill="#455A64"/>
<path d="M285.801 213.232C285.961 213.551 286.181 213.837 286.448 214.073C287.057 214.688 287.787 215.169 288.591 215.487C289.389 215.814 290.244 215.976 291.106 215.963C291.463 215.983 291.82 215.93 292.155 215.807C291.808 215.786 291.46 215.786 291.114 215.807C289.435 215.732 287.832 215.083 286.575 213.969C286.332 213.708 286.074 213.462 285.801 213.232Z" fill="#455A64"/>
<path d="M285.6 221.565C285.6 221.565 285.6 221.565 285.659 221.483C285.704 221.399 285.744 221.312 285.778 221.223C285.921 220.878 285.999 220.51 286.009 220.137C286.026 219.542 285.898 218.952 285.637 218.418C285.295 217.694 284.707 217.117 283.978 216.788C283.102 216.505 282.279 216.077 281.544 215.523C281.368 215.35 281.229 215.143 281.137 214.913C281.045 214.684 281.001 214.438 281.009 214.191C281.039 213.647 281.129 213.108 281.277 212.584C281.419 211.989 281.436 211.371 281.327 210.769C281.218 210.167 280.986 209.594 280.644 209.087C280.283 208.546 279.795 208.101 279.223 207.792C278.62 207.506 277.963 207.349 277.296 207.331C276.641 207.286 275.994 207.331 275.376 207.219C274.77 207.16 274.187 206.953 273.679 206.617C273.22 206.256 272.898 205.749 272.764 205.18C272.619 204.613 272.435 204.056 272.214 203.514C271.786 202.5 271.085 201.624 270.19 200.984C269.399 200.434 268.459 200.141 267.496 200.143C266.696 200.13 265.913 200.375 265.264 200.843C264.78 201.189 264.391 201.653 264.133 202.189C263.969 202.526 263.866 202.888 263.828 203.261C263.81 203.389 263.81 203.519 263.828 203.648C263.86 203.155 263.992 202.674 264.215 202.234C264.528 201.645 264.998 201.154 265.573 200.816C266.149 200.478 266.807 200.307 267.474 200.322C268.395 200.334 269.291 200.627 270.041 201.162C270.898 201.785 271.568 202.632 271.976 203.61C272.183 204.148 272.359 204.697 272.504 205.255C272.653 205.874 273.007 206.425 273.508 206.817C274.046 207.185 274.668 207.413 275.316 207.48C275.964 207.569 276.611 207.547 277.258 207.591C277.888 207.608 278.507 207.758 279.074 208.03C279.613 208.312 280.074 208.723 280.413 209.228C280.736 209.709 280.956 210.251 281.06 210.821C281.164 211.391 281.149 211.976 281.016 212.539C280.87 213.079 280.782 213.633 280.756 214.191C280.748 214.468 280.798 214.744 280.903 215C281.008 215.256 281.166 215.488 281.366 215.679C282.123 216.251 282.974 216.687 283.881 216.967C284.573 217.259 285.139 217.786 285.481 218.455C285.743 218.969 285.881 219.537 285.882 220.114C285.885 220.612 285.788 221.105 285.6 221.565Z" fill="#455A64"/>
<path d="M282.617 205.225C282.639 205.133 282.639 205.036 282.617 204.943C282.595 204.668 282.486 204.407 282.304 204.199C282.014 203.864 281.622 203.634 281.188 203.544C280.614 203.452 280.026 203.524 279.492 203.752C278.897 203.968 278.294 204.31 277.617 204.556C277.276 204.712 276.905 204.793 276.53 204.793C276.155 204.793 275.785 204.712 275.444 204.556C274.75 204.069 274.198 203.406 273.844 202.636C273.392 201.802 272.807 201.048 272.11 200.404C270.763 199.154 269.038 198.387 267.207 198.224C266.404 198.169 265.6 198.321 264.871 198.663C264.235 198.966 263.698 199.443 263.323 200.039C263.017 200.539 262.877 201.122 262.921 201.706C262.95 202.141 263.085 202.563 263.315 202.934C263.456 203.168 263.64 203.372 263.859 203.536C263.936 203.59 264.018 203.638 264.104 203.678C263.826 203.454 263.587 203.184 263.397 202.882C263.197 202.515 263.082 202.108 263.062 201.691C263.039 201.142 263.185 200.6 263.479 200.136C263.845 199.578 264.361 199.134 264.967 198.856C265.666 198.537 266.435 198.404 267.2 198.469C268.971 198.637 270.637 199.385 271.939 200.597C272.615 201.217 273.188 201.94 273.636 202.74C274.009 203.547 274.596 204.237 275.332 204.734C275.709 204.934 276.135 205.022 276.56 204.987C276.95 204.957 277.334 204.869 277.699 204.727C278.405 204.459 278.993 204.109 279.566 203.886C280.067 203.661 280.621 203.578 281.166 203.648C281.574 203.722 281.947 203.926 282.23 204.228C282.415 204.417 282.535 204.659 282.572 204.92C282.624 205.121 282.602 205.225 282.617 205.225Z" fill="#455A64"/>
</svg>
